<svg xmlns="http://www.w3.org/2000/svg" viewBox="0 0 1366 768"><defs><style>.cls-1{isolation:isolate;}.cls-2{opacity:0.7;}.cls-3{fill:#ffed6f;}.cls-4{fill:none;}.cls-5{fill:#d56e19;}.cls-11,.cls-6{fill:#ff8a33;}.cls-7{fill:#a05313;}.cls-8{fill:#613e35;}.cls-9{fill:#ffb985;}.cls-10{fill:#bf6b32;}.cls-11{mix-blend-mode:soft-light;}</style></defs><title>dog</title><g class="cls-1"><g id="Layer_1" data-name="Layer 1"><g class="cls-2"><rect class="cls-3" width="1366" height="768"/></g><path class="cls-4" d="M449,546.84c-.18,1.87-.36,3.72-.55,5.51-1.3-.51-2.56-1-3.72-1.38A45.43,45.43,0,0,0,449,546.84Z" transform="translate(0 0)"/><path class="cls-5" d="M380.88,559.29c18-1.72,57.09-9.08,63.25-40.54,8-41.06-50.36-39.24-50.36-39.24l50.36-2.72c8,20.58,7,47.86,4.91,70a45.43,45.43,0,0,1-4.26,4.13c1.16.4,2.41.87,3.72,1.38-.88,8.43-1.83,15.88-2.35,21.64a28.34,28.34,0,0,1-6.46-3.29,18,18,0,0,0-4.16-7.24C429.89,557.66,397.06,558.5,380.88,559.29Z" transform="translate(0 0)"/><path class="cls-6" d="M369.14,448.49c15.16-49-22.84-112-23-112.65v-.05c-1.54-2.62-3-5.35-4.33-8.21-30.11-64.33,13.69-93.76,43.8-99.92,24.29-5,42.43-1.37,61.59,19.16s27.37,69.81,53.38,58.86,49.06-.3,23.27,37c-14.09,20.35-38.74,34-65.82,38.9a218.77,218.77,0,0,0,8.62,48.53c8.3,27.39,19.49,104.11,22.08,122.3,4.29.09,10.93,1.19,11.84,7,1.37,8.67-15.51,10-22.36,9.12-5.59-.74-4.74-7.56-5.39-17.58L465,476.6l6.82,98s22.39,5.4,9.61,16.35-34.68,6.35-35.59-8.25a62.65,62.65,0,0,1,.36-8.67c.52-5.77,1.46-13.21,2.35-21.64.19-1.79.37-3.64.55-5.51,2.1-22.19,3.11-49.47-4.91-70l-50.36,2.72s58.4-1.83,50.36,39.24c-6.16,31.46-45.28,38.82-63.25,40.54,16.18-.79,49-1.63,54.64,4.18a18,18,0,0,1,4.16,7.24c2.42,7.95-.34,17.17-11.24,16.49-14.6-.91-25.55-11-25.55-11s-78.48,10-89.43-12.77S353.62,498.67,369.14,448.49Z" transform="translate(0 0)"/><path class="cls-7" d="M433.36,215.34c8.95-1.59,20.56,17.82,38.11,22.45-27.72-2.23-36.82-25.1-48.27-6l-2.31-.69C421.85,226.31,424.81,216.86,433.36,215.34Z" transform="translate(0 0)"/><path class="cls-5" d="M413.62,231.08s.68-44.48,26-32.85,47.22,6.84,63,2.05,13,28.06-14.37,37a29,29,0,0,1-16.75.55c-17.55-4.62-29.17-24-38.11-22.45-8.56,1.52-11.51,11-12.47,15.73l-4.53-1.36,4.53,1.36a27.15,27.15,0,0,0-.42,2.75Z" transform="translate(0 0)"/><path class="cls-5" d="M371.88,266s-10.95-38.89-34.22-26.63-17.79,45.79-32.85,62.22-13,33.54,6.16,37,41.06-8.9,37.64-43.8,4.11-42.43,18.48-27.38Z" transform="translate(0 0)"/><circle class="cls-8" cx="424.58" cy="302.94" r="5.65"/><circle class="cls-8" cx="458.79" cy="285.15" r="5.65"/><path class="cls-8" d="M406.43,282.72c1.41-3,3.48-4,6.22-5.38.56-.29,1.26.49.71.92-3.61,2.89-4.5,9-4.91,13.27a1.9,1.9,0,0,1-3.8,0A17.28,17.28,0,0,1,406.43,282.72Z" transform="translate(0 0)"/><path class="cls-8" d="M444.37,256.35c5.23-4.08,13.86-2.62,18.41,1.77,1.73,1.67-.48,4.43-2.53,3.28a30.8,30.8,0,0,0-6.88-3.1c-2.8-.78-5.65-.49-8.5-.72C444.33,257.54,443.82,256.78,444.37,256.35Z" transform="translate(0 0)"/><path class="cls-6" d="M321.43,548.47l-.65-.06-.51-.06-1-.15c-.62-.11-1.23-.22-1.83-.36-1.2-.27-2.36-.59-3.5-1a40.34,40.34,0,0,1-6.62-2.82,37.7,37.7,0,0,1-11.14-9,40,40,0,0,1-6.94-12.22,52.87,52.87,0,0,1-2.84-13.21,90.22,90.22,0,0,1,1.83-25.77c.82-4.16,1.94-8.27,2.91-12.18s1.89-7.95,2.71-11.94a204.72,204.72,0,0,0,3.59-24.16,103.46,103.46,0,0,0-.55-24.25c-1.25-7.95-3.92-15.83-9-22.14a35.16,35.16,0,0,0-9.14-8,45,45,0,0,0-11.31-4.78,45.34,45.34,0,0,1,11.67,4.15A36.25,36.25,0,0,1,289,388.2a40.84,40.84,0,0,1,6.88,10.55,58.78,58.78,0,0,1,3.92,12,107,107,0,0,1,2,25,209.74,209.74,0,0,1-2.21,24.93q-.89,6.19-2,12.33c-.78,4.14-1.58,8.06-2.11,12a82.28,82.28,0,0,0-.23,23.48c1.15,7.53,4,14.59,8.79,19.58A26.85,26.85,0,0,0,312.4,534a28.94,28.94,0,0,0,4.87,1.71c.83.21,1.67.39,2.5.51.41.07.82.12,1.22.16l.58,0h.38Z" transform="translate(0 0)"/><path class="cls-8" d="M458.79,386.44l1.42,10.41s-46.36,17-91.07,5.1l-1.83-9.13S415,408.21,458.79,386.44Z" transform="translate(0 0)"/><path class="cls-9" d="M530,327.58c0,2.05,0,21.9-21.9,37s-43.12,2.05-46.54-13,19.85-42,51.33-33.34" transform="translate(0 0)"/><path class="cls-10" d="M508.28,343.32a1.16,1.16,0,0,1,2.31,0,2.8,2.8,0,0,1-.35,1.84,1,1,0,0,1-1.61,0A2.8,2.8,0,0,1,508.28,343.32Z" transform="translate(0 0)"/><path class="cls-10" d="M506.69,354c1.3,0,1.3,3.21,0,3.21C504.09,357.24,504.09,354,506.69,354Z" transform="translate(0 0)"/><path class="cls-10" d="M488.48,356.72c1.3,0,1.3,3.3,0,3.3C485.88,360,485.88,356.72,488.48,356.72Z" transform="translate(0 0)"/><path class="cls-10" d="M497.59,342.43c2.6,0,2.6,3.14,0,3.14S495,342.43,497.59,342.43Z" transform="translate(0 0)"/><path class="cls-10" d="M492.39,328.25c1.3,0,1.3,2.76,0,2.76C489.78,331,489.78,328.25,492.39,328.25Z" transform="translate(0 0)"/><path class="cls-10" d="M482,345.12c1.3,0,1.3,3.24,0,3.24C479.38,348.36,479.38,345.12,482,345.12Z" transform="translate(0 0)"/><path class="cls-10" d="M479.38,331.56c1.3,0,1.3,3,0,3C476.78,334.55,476.78,331.56,479.38,331.56Z" transform="translate(0 0)"/><path class="cls-10" d="M474.18,351.46c1.3,0,1.3,2.89,0,2.89C470.27,354.34,470.27,351.46,474.18,351.46Z" transform="translate(0 0)"/><path class="cls-8" d="M528.37,302c17.64,2.09,13.21,9.12,7.76,23.72-4.87,13-19.16,8.67-31,5S506.57,299.44,528.37,302Z" transform="translate(0 0)"/><path class="cls-11" d="M526.09,307c-1.37-.46-13.63,7.76-15.49,14.14s13.66,7.06,13.66,7.06-20.08,2.06-17.79-6.61S526.09,307,526.09,307Z" transform="translate(0 0)"/></g></g></svg>