<?xml version="1.0" encoding="utf-8"?>
<!-- Generator: Adobe Illustrator 21.0.0, SVG Export Plug-In . SVG Version: 6.00 Build 0)  -->
<svg version="1.1" id="Layer_1" xmlns="http://www.w3.org/2000/svg" xmlns:xlink="http://www.w3.org/1999/xlink" x="0px" y="0px"
	 viewBox="0 0 273.5 400.7" style="enable-background:new 0 0 273.5 400.7;" xml:space="preserve">
<style type="text/css">
	.st0{fill:none;}
	.st1{fill:#D56E19;}
	.st2{fill:#FF8A33;}
	.st3{fill:#A05313;}
	.st4{fill:#613E35;}
	.st5{fill:#FFB985;}
	.st6{fill:#BF6B32;}
</style>
<g>
	<g>
		<path class="st0" d="M181.6,350.5c-0.2,1.9-0.4,3.7-0.5,5.5c-1.3-0.5-2.6-1-3.7-1.4C178.8,353.4,180.2,352,181.6,350.5z"/>
		<path class="st1" d="M113.4,363c18-1.7,57.1-9.1,63.3-40.5c8-41.1-50.4-39.2-50.4-39.2l50.4-2.7c8,20.6,7,47.9,4.9,70
			c-1.4,1.5-2.8,2.9-4.3,4.1c1.2,0.4,2.4,0.9,3.7,1.4c-0.9,8.4-1.8,15.9-2.3,21.6c-2.4-0.8-4.6-2-6.5-3.3c-0.8-2.7-2.2-5.3-4.2-7.2
			C162.4,361.4,129.6,362.2,113.4,363z"/>
		<path class="st2" d="M101.7,252.2c15.2-49-22.8-112-23-112.6c0,0,0,0,0-0.1c-1.5-2.6-3-5.3-4.3-8.2C44.2,67,88,37.5,118.1,31.4
			c24.3-5,42.4-1.4,61.6,19.2c19.2,20.5,27.4,69.8,53.4,58.9c26-11,49.1-0.3,23.3,37c-14.1,20.4-38.7,34-65.8,38.9
			c0.7,10.8,2.7,29,8.6,48.5c8.3,27.4,19.5,104.1,22.1,122.3c4.3,0.1,10.9,1.2,11.8,7c1.4,8.7-15.5,10-22.4,9.1
			c-5.6-0.7-4.7-7.6-5.4-17.6l-7.8-74.3l6.8,98c0,0,22.4,5.4,9.6,16.4c-12.8,11-34.7,6.4-35.6-8.2c-0.1-2.1,0-5.1,0.4-8.7
			c0.5-5.8,1.5-13.2,2.3-21.6c0.2-1.8,0.4-3.6,0.5-5.5c2.1-22.2,3.1-49.5-4.9-70l-50.4,2.7c0,0,58.4-1.8,50.4,39.2
			c-6.2,31.5-45.3,38.8-63.3,40.5c16.2-0.8,49-1.6,54.6,4.2c1.9,2,3.3,4.5,4.2,7.2c2.4,7.9-0.3,17.2-11.2,16.5
			c-14.6-0.9-25.5-11-25.5-11S57,390,46,367.2C35.1,344.4,86.2,302.4,101.7,252.2z"/>
	</g>
	<g>
		<g>
			<path class="st3" d="M165.9,19c8.9-1.6,20.6,17.8,38.1,22.4c-27.7-2.2-36.8-25.1-48.3-6l-2.3-0.7C154.4,30,157.4,20.6,165.9,19z"
				/>
			<path class="st1" d="M146.2,34.8c0,0,0.7-44.5,26-32.8c25.3,11.6,47.2,6.8,63,2.1c15.7-4.8,13,28.1-14.4,37
				c-6.1,2-11.7,1.9-16.7,0.5c-17.5-4.6-29.2-24-38.1-22.4c-8.6,1.5-11.5,11-12.5,15.7l-4.5-1.4l4.5,1.4c-0.3,1.7-0.4,2.7-0.4,2.7
				L146.2,34.8z"/>
		</g>
		<path class="st1" d="M104.4,69.7c0,0-10.9-38.9-34.2-26.6c-23.3,12.3-17.8,45.8-32.9,62.2c-15.1,16.4-13,33.5,6.2,37
			c19.2,3.4,41.1-8.9,37.6-43.8C77.7,63.5,85.3,56,99.6,71.1L104.4,69.7z"/>
	</g>
	<g>
		<g>
			<circle class="st4" cx="157.1" cy="106.7" r="5.6"/>
			<circle class="st4" cx="191.3" cy="88.9" r="5.6"/>
		</g>
		<g>
			<path class="st4" d="M139,86.4c1.4-3,3.5-4,6.2-5.4c0.6-0.3,1.3,0.5,0.7,0.9c-3.6,2.9-4.5,9-4.9,13.3c-0.2,2.4-3.6,2.5-3.8,0
				C137,92.1,137.6,89.3,139,86.4z"/>
			<path class="st4" d="M176.9,60.1c5.2-4.1,13.9-2.6,18.4,1.8c1.7,1.7-0.5,4.4-2.5,3.3c-2.2-1.3-4.4-2.4-6.9-3.1
				c-2.8-0.8-5.6-0.5-8.5-0.7C176.9,61.2,176.4,60.5,176.9,60.1z"/>
		</g>
	</g>
	<g>
		<path class="st2" d="M54,352.2c-0.3,0-0.5,0-0.7-0.1l-0.5-0.1l-1-0.1c-0.6-0.1-1.2-0.2-1.8-0.4c-1.2-0.3-2.4-0.6-3.5-1
			c-2.3-0.7-4.5-1.7-6.6-2.8c-4.2-2.3-8.1-5.4-11.1-9c-3.1-3.7-5.4-7.9-6.9-12.2c-1.6-4.3-2.4-8.8-2.8-13.2
			c-0.8-8.8,0.2-17.5,1.8-25.8c0.8-4.2,1.9-8.3,2.9-12.2c1-4,1.9-7.9,2.7-11.9c1.6-8,2.9-16.1,3.6-24.2c0.6-8.1,0.7-16.3-0.5-24.3
			c-1.2-7.9-3.9-15.8-9-22.1c-2.5-3.2-5.6-5.8-9.1-8c-3.5-2.1-7.3-3.7-11.3-4.8c4,0.9,8,2.2,11.7,4.2c3.7,2,7.1,4.5,9.9,7.6
			c2.8,3.1,5.1,6.7,6.9,10.6c1.8,3.8,3,7.9,3.9,12c1.8,8.2,2.2,16.7,2,25c-0.2,8.4-1,16.7-2.2,24.9c-0.6,4.1-1.3,8.2-2,12.3
			c-0.8,4.1-1.6,8.1-2.1,12c-1.1,7.9-1.4,15.9-0.2,23.5c1.1,7.5,4,14.6,8.8,19.6c2.4,2.5,5.2,4.5,8.4,5.9c1.6,0.7,3.2,1.3,4.9,1.7
			c0.8,0.2,1.7,0.4,2.5,0.5c0.4,0.1,0.8,0.1,1.2,0.2l0.6,0l0.3,0c0.1,0,0.2,0,0.1,0L54,352.2z"/>
	</g>
	<path class="st4" d="M191.3,190.1l1.4,10.4c0,0-46.4,17-91.1,5.1l-1.8-9.1C99.9,196.5,147.5,211.9,191.3,190.1z"/>
	<g>
		<g>
			<path class="st5" d="M262.5,131.3c0,2.1,0,21.9-21.9,37c-21.9,15.1-43.1,2.1-46.5-13c-3.4-15.1,19.8-42,51.3-33.3"/>
			<path class="st6" d="M240.8,147c0.1-1.5,2.2-1.5,2.3,0c0,0.6,0,1.3-0.4,1.8c-0.4,0.6-1.2,0.6-1.6,0
				C240.8,148.3,240.8,147.7,240.8,147z"/>
			<path class="st6" d="M239.2,157.7c1.3,0,1.3,3.2,0,3.2C236.6,161,236.6,157.7,239.2,157.7z"/>
			<path class="st6" d="M221,160.4c1.3,0,1.3,3.3,0,3.3C218.4,163.7,218.4,160.4,221,160.4z"/>
			<path class="st6" d="M230.1,146.1c2.6,0,2.6,3.1,0,3.1S227.5,146.1,230.1,146.1z"/>
			<path class="st6" d="M224.9,132c1.3,0,1.3,2.8,0,2.8C222.3,134.7,222.3,132,224.9,132z"/>
			<path class="st6" d="M214.5,148.8c1.3,0,1.3,3.2,0,3.2C211.9,152.1,211.9,148.8,214.5,148.8z"/>
			<path class="st6" d="M211.9,135.3c1.3,0,1.3,3,0,3C209.3,138.3,209.3,135.3,211.9,135.3z"/>
			<path class="st6" d="M206.7,155.2c1.3,0,1.3,2.9,0,2.9C202.8,158.1,202.8,155.2,206.7,155.2z"/>
		</g>
		<g>
			<path class="st4" d="M260.9,105.7c17.6,2.1,13.2,9.1,7.8,23.7c-4.9,13-19.2,8.7-31,5C225.8,130.8,239.1,103.2,260.9,105.7z"/>
			<path class="st2" d="M258.6,110.8c-1.4-0.5-13.6,7.8-15.5,14.1c-1.9,6.4,13.7,7.1,13.7,7.1s-20.1,2.1-17.8-6.6
				C241.3,116.7,258.6,110.8,258.6,110.8z"/>
		</g>
	</g>
</g>
</svg>
