<svg id="Layer_1" data-name="Layer 1" xmlns="http://www.w3.org/2000/svg" viewBox="0 0 583.47 406.99"><defs><style>.cls-1{fill:#5b8129;}.cls-2{fill:#fde688;}.cls-3{fill:#fbd32e;}.cls-4{fill:#77bd00;}.cls-5{fill:#bbde80;}.cls-6{fill:#99cd40;}.cls-7{fill:#3c6900;}</style></defs><title>dragon</title><path class="cls-1" d="M296.09,240.76s-6.33-19.9-1.29-47.08S309,152,309,152s-27.35-14.6-44.42-36.29S241.52,79.6,240.81,79.93s4.75,17.81-.83,36.7-8.21,20.86-8.21,20.86,20.82,4.05,22.05,20.41-6.33,27.22-6.33,27.22,17,0,28.73,21.18,9,37.17,9,37.17Z"/><path class="cls-1" d="M273.77,248.79S256.34,235.44,244.35,209s-12.8-44.39-12.8-44.39-32.41,3.81-60.19-4.63-41.63-17.28-42-16.58,14.81,12.49,21.34,32.1,5.45,22.88,5.45,22.88,20.43-9,31.32,4.36S198.33,230,198.33,230s14.71-13.34,37.58-2.18,29.41,25.33,29.41,25.33Z"/><path class="cls-2" d="M138.75,391.36c-1.35,1.78-10.63,13.62-12.67,7.25-1-3,3.53-9,6.14-10.22,2.89-1.33,4.69,3.22,6.86,4.24,3,1.42,5,2.3,7.24,5.07-2.08,2.52-3.39,7.24-6.52,8.63-2,.87-4.89,1-6.54-.41s-1.72-3.64-.62-5.57c1.28-2.23,3.72-6,6-7.27"/><path class="cls-2" d="M134.05,387.27c-2.27,2.17-12.15,9.83-13.08,2.25-.58-4.72,7.86-6,11.09-6.66C132.26,384.35,132.85,386.42,134.05,387.27Z"/><path class="cls-2" d="M92.3,368.66c-1.2,4.37-7.29,7.79-11.64,7.76-4.78,0-5.73-3.55-3.56-7.24a11.6,11.6,0,0,1,5.55-5C84.54,366.21,88.49,367.9,92.3,368.66Z"/><path class="cls-2" d="M77.68,356.23c-3.71,1.63-15.42,5.15-15.53-2.41-.09-6.83,8.09-5.38,12.25-4.64,3.77.67,1.05,4.16,1.66,6.6.54,2.2,5.63,4.81,4.48,7.18-2,2.65-10.77,8.35-14.1,4.75s5.33-10.22,8.38-10.72c.81-.13,1.15-.19,1.48,0"/><path class="cls-2" d="M334.64,363c-.45.94-.39,2.84-.66,4.07a18.54,18.54,0,0,1-2,5.94c-1.08,1.79-2.71,5.29-4.65,6.28-5.43,2.78-2.21-8.66-1.61-10.26.73-1.95,1.39-4,2.26-5.81,1.17-.18,2.23.27,3.38.08S333.09,362.39,334.64,363Z"/><path class="cls-2" d="M325.65,363.17c.21,3.58-1.85,8.19-3.89,11-1.47,2.05-2.78,3-5.41,2.85-7.5-.4-.36-9.82,1.7-12.46,1-1.23.87-1.64,2.65-1.64C322.08,363,323.49,363.68,325.65,363.17Z"/><path class="cls-2" d="M318.29,361.74c.47,4.91-10.65,14.21-12.67,6.33-1.18-4.61,6.24-10.08,9.77-11.65C316.16,358.57,316.33,361.22,318.29,361.74Z"/><path class="cls-3" d="M425.33,52.29s-2-14.71-15.93-29.41-27.78-18-31.46-20A30.47,30.47,0,0,0,370.18,0s16.34,16.34,21.24,30.64a99.06,99.06,0,0,1,4.9,27.78Z"/><path class="cls-4" d="M192.47,375.43c-3.31,3.74-5.31,7.61-9.4,10.74-3.08,2.37-6.1,5-9.3,7.14a58,58,0,0,1-16.59,7.23c-8.66,2.43-17,2.22-23.51-4.68-2.18-2.32-6.25-7.45-4.53-11.06,1.22-2.57,6.9-3.6,9.2-4.08,4.08-.85,7.75-1,11.66-2.74,5.82-2.62,7.56-6.36,11.76-10.32,3.94-3.73,12.42-3.37,17.56-2.12C186,367.15,189.6,371,192.47,375.43Z"/><path class="cls-4" d="M343.62,304.75c3.93,12.57.78,26.63-1.24,39.21-1.26,7.85-2.76,17.35-9.68,22.59C327,370.86,317,369.66,313,363.41c-5.23-8,.07-18.2,4.71-24.86,4.92-7.07,9.38-14.66,14.71-21.4C334.58,314.38,339.92,306.36,343.62,304.75Z"/><path class="cls-5" d="M168.64,299.44s3,0,24.24-2.18c24.48-2.51,59.37-14.71,59.37-14.71s0,10.89-2.72,28.87-13.62,33.77-13.62,33.77,3.27,10.89,13.62,12.53,20.15-7.08,33.23-33.23,11.44-67,11.44-67a266.34,266.34,0,0,0,35.4-32.14c17.43-19.06,47.93-69.72,64.27-83.88,15.92-13.8,42.19-2.77,58.64,11.41-15.88-3.28-38.35-3.61-53.74,14.19-26.15,30.23-24.51,125-75.17,175.66S191.25,392.58,139,363.17c-4.32-2.43-8.52-5-12.63-7.73C149.18,339.36,168.64,299.44,168.64,299.44Z"/><path class="cls-5" d="M37.64,253.14c25.06,30.5,93.69,45.21,93.69,45.21s-3.81,16.89-20.15,30.5a88.25,88.25,0,0,1-10.27,7.32c-32-27.48-53.76-58.81-59.17-70.23-2.28-4.82-5.35-11.45-8.5-18.3Q35.37,250.38,37.64,253.14Z"/><path class="cls-2" d="M260.49,353.16c-.13,2-2.66,4-3.88,5.57-1.91,2.39-4,3.37-6.74,4.44-1.89.73-5.08,2-6.54.11-2.45-3.09,2.9-10.56,5.5-12.14C251.16,354.07,257,352.24,260.49,353.16Z"/><path class="cls-2" d="M247,350.51c-1.69,3.06-12.89,10.67-14.94,4.19-.72-2.29,2-3.92,3.59-5.11,1.4-1,4.2-3.63,6-3.62C243.26,346,245.94,349.06,247,350.51Z"/><path class="cls-2" d="M240.68,344.79c-3.45,1.88-10.35,6.05-13.59,1.33a3.07,3.07,0,0,1,1.24-4.77c1.76-.86,3.6.09,5.36.63a24.52,24.52,0,0,0,6.14.8A5.25,5.25,0,0,0,240.68,344.79Z"/><path class="cls-6" d="M391.17,154.85a1.12,1.12,0,0,1,1.62-1.25c4.43,2.23,8,5.28,12.39,7.41a44.36,44.36,0,0,0-3.55,3.07C397.26,162.2,392.11,159.36,391.17,154.85Z"/><path class="cls-6" d="M368.44,182.87c-.65-.94.58-1.9,1.45-1.45,5.76,2.93,10.66,6.42,16.54,8.85-.45,1.23-.89,2.48-1.32,3.76C378.2,191.7,372,188.09,368.44,182.87Z"/><path class="cls-6" d="M351.59,217.16c-.41-.7.29-1.85,1.15-1.5,7.56,3.1,13.65,8,21.85,10.09.45.12.9.2,1.35.31l-1,3.71c-.47-.11-.94-.2-1.41-.32C366,227.53,355.77,224.23,351.59,217.16Z"/><path class="cls-6" d="M334.91,249.73a.8.8,0,0,1,1.08-1.08c3.9,1.78,7.13,4.88,10.94,6.92a68.64,68.64,0,0,0,15.86,5.82c1.11.28,2.22.52,3.34.76q-.55,1.81-1.11,3.63c-1.85-.42-3.7-.88-5.51-1.41C351.33,262,338.89,258,334.91,249.73Z"/><path class="cls-6" d="M305.8,275.47c-.59-.93.56-1.94,1.45-1.45,10.21,5.58,18.34,13.83,29.15,18.77a98.07,98.07,0,0,0,16.47,5.77q-.8,1.77-1.63,3.52a92.65,92.65,0,0,1-14.46-4.86C326.08,292.61,312.28,285.59,305.8,275.47Z"/><path class="cls-6" d="M290.12,307.29a.84.84,0,0,1,1.39-.81c8.61,9.56,17.39,17,28.77,23.05,3.45,1.83,6.89,3.7,10.39,5.47q-1.34,1.6-2.73,3.15c-3.94-1.95-7.83-4-11.68-6.09C306.22,326.64,293.17,319.12,290.12,307.29Z"/><path class="cls-6" d="M231,310.08a1.11,1.11,0,0,1,2-.85,252.07,252.07,0,0,0,37.47,46c4.78,4.58,10,9.38,15.64,13.76-1.23.58-2.48,1.13-3.73,1.68-4.86-3.73-9.45-7.72-13.72-11.6C254.64,346.29,236.1,329,231,310.08Z"/><path class="cls-6" d="M189.61,311.82a1.1,1.1,0,0,1,2.14-.29c2,7.18,2.61,14.68,4.38,21.93a140.47,140.47,0,0,0,8.5,24.71,132.06,132.06,0,0,0,10.83,19.59c1.24,1.83,2.52,3.75,3.85,5.67-1.81,0-3.62,0-5.43-.1a138,138,0,0,1-12.27-21.79C194.81,346.85,187.79,328.28,189.61,311.82Z"/><path class="cls-6" d="M152.28,334.48c-.47-7.48-1.47-15.47.29-22.81a1.14,1.14,0,0,1,2.19,0c3.63,14.74.94,30.93,3.91,46,1.08,5.45,2.5,10.84,4.11,16.19-1.33-.47-2.65-.94-4-1.44a130.56,130.56,0,0,1-4.27-16.66A186.79,186.79,0,0,1,152.28,334.48Z"/><path class="cls-6" d="M100.85,297a1.12,1.12,0,0,1,2.13,0c1.68,6.74-1.65,13.57-1.88,20.4-.21,6.35.11,12.81.24,19.19q-1.8-1.54-3.56-3.1C97.1,321.15,97.16,309,100.85,297Z"/><path class="cls-6" d="M68.9,283c.89-.73,2.5-.08,2.09,1.22-1.66,5.19-3.62,10.59-5.3,16.09-1.43-1.72-2.82-3.41-4.14-5.07C63,290.46,65.25,286,68.9,283Z"/><path class="cls-4" d="M356.83,111s-12-33.77,26.15-55,58.83-4.36,68.63,16.34,19.61,61,43.58,69.18,32.14,0,43-5.45,31-16.89,41.94-1.09-6,47.39-37,52.83-73-19.06-89.33-33.77-43.58-26.69-59.92-12.53S347,206.3,329.6,225.36a266.35,266.35,0,0,1-35.4,32.14s1.63,40.85-11.44,67-22.88,34.86-33.23,33.23-13.62-12.53-13.62-12.53,10.89-15.8,13.62-33.77,2.72-28.87,2.72-28.87-34.89,12.2-59.37,14.71c-21.24,2.18-24.24,2.18-24.24,2.18s-21,43-44.94,57.74S92.11,373,81.76,366.44s-8.17-18-8.17-18,21.24-6,37.58-19.61,20.15-30.5,20.15-30.5S62.7,283.65,37.64,253.14-1,195.41.06,160.55s15.8-66.45,19.61-75.17a156.76,156.76,0,0,1,9.26-17.43L2.78,73.4S60,23.42,66,26.55c6.81,3.57-17.43,75.17-17.43,75.17L41.46,72.85S23.48,111,21.3,142.57s19.06,79.52,67.54,99.68,144.34,25.6,191.73,1.09,79.52-82.79,80.61-95.87S356.83,111,356.83,111Z"/><path class="cls-2" d="M524.18,197.72c-4.72-.17-5-6-4.35-10.58A76.22,76.22,0,0,0,533,188.52C531.67,193,528.28,197.87,524.18,197.72Z"/><path class="cls-2" d="M506.74,193.42c-2.13-.88-2.65-6.85-2.08-10.36,3.08,1.05,6.18,2,9.27,2.77a10.18,10.18,0,0,1-2,4.75C511,191.85,508.64,194.2,506.74,193.42Z"/><path class="cls-2" d="M489,186.07c-1.51-1.51-1.89-4.3-1.74-6.37a23.52,23.52,0,0,1,.68-3.58c3.33,1.61,6.75,3.13,10.24,4.52C496.35,184.89,492.52,189.62,489,186.07Z"/><path class="cls-2" d="M473.78,178.07c-1.79-2.13-1.49-6.46-.29-9.81,2.6,1.58,5.33,3.15,8.17,4.66C479.79,176.9,476.48,181.29,473.78,178.07Z"/><path class="cls-2" d="M458.1,167.39c-1.45-2.62,0-5.8,1.44-8.62,2.4,1.85,5.07,3.76,8,5.7C464.89,168.26,460.82,172.29,458.1,167.39Z"/><path class="cls-2" d="M445.18,155.86a10.9,10.9,0,0,1,1.63-7.43,83,83,0,0,1,7,5.58l.54.47C451.43,158.2,446.37,161.05,445.18,155.86Z"/><path class="cls-3" d="M381.21,62.5s6.13,7.76-1.63,15.93S364.87,87,364.87,87s-7.35-15.52-25.74-27-30.64-13.48-30.64-13.48,16.75-4.9,42.08,1.23S381.21,62.5,381.21,62.5Z"/><path class="cls-7" d="M441.13,107c.24-6.46-9.21-11.36-14.88-10.13a8.65,8.65,0,0,0-6.64,5.82c-.86,2.58-1.5,7.31,0,9.68a1,1,0,0,0,1.62,0c2.09-3.93-1.45-9.34,3.67-12.17s13.31,1.61,14.87,7a.69.69,0,0,0,1.36-.18Z"/><path class="cls-7" d="M453,101.81c-1.12-3.27-3-6.06-2.2-9.69a8.68,8.68,0,0,1,2-4.08c1.56-1.69,3.16-1.51,5.19-1.6a1.08,1.08,0,0,0,.75-1.82c-3.63-3.18-8.33.84-9.94,4.29C446.61,93.66,447.9,99,451,103c.74.94,2.37-.08,2-1.16Z"/><path class="cls-7" d="M540.39,153.47c3.84-2.88,9.95-3,13.56,1.09A11.17,11.17,0,0,1,556,165c-3.44,9.16-14,6.54-17.22-1.16C537.78,161.45,536,156.73,540.39,153.47Z"/><path class="cls-7" d="M580.15,134.95c3.05,4.42,3.92,10.09,2.91,16.07-7.25-.73-16.09-10.86-9.19-17.71a8.26,8.26,0,0,1,3.09-2A20.42,20.42,0,0,1,580.15,134.95Z"/></svg>