<svg id="Layer_1" data-name="Layer 1" xmlns="http://www.w3.org/2000/svg" viewBox="0 0 1366 768"><defs><style>.cls-1{opacity:0.3;}.cls-2{fill:#ffffb3;}.cls-3{fill:#5b8129;}.cls-4{fill:#fde688;}.cls-5{fill:#fbd32e;}.cls-6{fill:#77bd00;}.cls-7{fill:#bbde80;}.cls-8{fill:#99cd40;}.cls-9{fill:#3c6900;}</style></defs><title>dragon</title><g class="cls-1"><rect class="cls-2" width="1366" height="768"/></g><path class="cls-3" d="M421.6,414.83s-6.33-19.9-1.29-47.08,14.19-41.68,14.19-41.68-27.35-14.6-44.42-36.29S367,253.67,366.33,254s4.75,17.81-.83,36.7-8.21,20.86-8.21,20.86,20.82,4.05,22.05,20.41S373,359.18,373,359.18s17,0,28.73,21.18,9,37.17,9,37.17Z" transform="translate(0 0)"/><path class="cls-3" d="M399.28,422.85s-17.43-13.34-29.41-39.76-12.8-44.39-12.8-44.39-32.41,3.81-60.19-4.63-41.63-17.28-42-16.58,14.81,12.49,21.34,32.1,5.45,22.88,5.45,22.88,20.43-9,31.32,4.36,10.89,27.23,10.89,27.23,14.71-13.34,37.58-2.18,29.41,25.33,29.41,25.33Z" transform="translate(0 0)"/><path class="cls-4" d="M264.27,565.42c-1.35,1.78-10.63,13.62-12.67,7.25-1-3,3.53-9,6.14-10.22,2.89-1.33,4.69,3.22,6.86,4.24,3,1.42,5,2.3,7.24,5.07-2.08,2.52-3.39,7.24-6.52,8.63-2,.87-4.89,1-6.54-.41s-1.72-3.64-.62-5.57c1.28-2.23,3.72-6,6-7.27" transform="translate(0 0)"/><path class="cls-4" d="M259.57,561.34c-2.27,2.17-12.15,9.83-13.08,2.25-.58-4.72,7.86-6,11.09-6.66C257.78,558.41,258.36,560.49,259.57,561.34Z" transform="translate(0 0)"/><path class="cls-4" d="M217.81,542.72c-1.2,4.37-7.29,7.79-11.64,7.76-4.78,0-5.73-3.55-3.56-7.24a11.6,11.6,0,0,1,5.55-5C210.06,540.27,214,542,217.81,542.72Z" transform="translate(0 0)"/><path class="cls-4" d="M203.19,530.29c-3.71,1.63-15.42,5.15-15.53-2.41-.09-6.83,8.09-5.38,12.25-4.64,3.77.67,1.05,4.16,1.66,6.6.54,2.2,5.63,4.81,4.48,7.18-2,2.65-10.77,8.35-14.1,4.75s5.33-10.22,8.38-10.72c.81-.13,1.15-.19,1.48,0" transform="translate(0 0)"/><path class="cls-4" d="M460.15,537c-.45.94-.39,2.84-.66,4.07a18.54,18.54,0,0,1-2,5.94c-1.08,1.79-2.71,5.29-4.65,6.28-5.43,2.78-2.21-8.66-1.61-10.26.73-1.95,1.39-4,2.26-5.81,1.17-.18,2.23.27,3.38.08S458.6,536.45,460.15,537Z" transform="translate(0 0)"/><path class="cls-4" d="M451.16,537.23c.21,3.58-1.85,8.19-3.89,11-1.47,2.05-2.78,3-5.41,2.85-7.5-.4-.36-9.82,1.7-12.46,1-1.23.87-1.64,2.65-1.64C447.59,537,449,537.74,451.16,537.23Z" transform="translate(0 0)"/><path class="cls-4" d="M443.81,535.8c.47,4.91-10.65,14.21-12.67,6.33-1.18-4.61,6.24-10.08,9.77-11.65C441.68,532.63,441.85,535.29,443.81,535.8Z" transform="translate(0 0)"/><path class="cls-5" d="M550.84,226.35s-2-14.71-15.93-29.41-27.78-18-31.46-20a30.47,30.47,0,0,0-7.76-2.86S512,190.4,516.93,204.7a99.06,99.06,0,0,1,4.9,27.78Z" transform="translate(0 0)"/><path class="cls-6" d="M318,549.49c-3.31,3.74-5.31,7.61-9.4,10.74-3.08,2.37-6.1,5-9.3,7.14a58,58,0,0,1-16.59,7.23c-8.66,2.43-17,2.22-23.51-4.68-2.18-2.32-6.25-7.45-4.53-11.06,1.22-2.57,6.9-3.6,9.2-4.08,4.08-.85,7.75-1,11.66-2.74,5.82-2.62,7.56-6.36,11.76-10.32,3.94-3.73,12.42-3.37,17.56-2.12C311.48,541.21,315.12,545,318,549.49Z" transform="translate(0 0)"/><path class="cls-6" d="M469.14,478.82c3.93,12.57.78,26.63-1.24,39.21-1.26,7.85-2.76,17.35-9.68,22.59-5.69,4.31-15.67,3.11-19.73-3.14-5.23-8,.07-18.2,4.71-24.86,4.92-7.07,9.38-14.66,14.71-21.4C460.09,488.44,465.44,480.43,469.14,478.82Z" transform="translate(0 0)"/><path class="cls-7" d="M294.16,473.51s3,0,24.24-2.18c24.48-2.51,59.37-14.71,59.37-14.71s0,10.89-2.72,28.87-13.62,33.77-13.62,33.77,3.27,10.89,13.62,12.53,20.15-7.08,33.23-33.23,11.44-67,11.44-67a266.34,266.34,0,0,0,35.4-32.14c17.43-19.06,47.93-69.72,64.27-83.88,15.92-13.8,42.19-2.77,58.64,11.41-15.88-3.28-38.35-3.61-53.74,14.19-26.15,30.23-24.51,125-75.17,175.66s-132.36,49.84-184.65,20.43c-4.32-2.43-8.52-5-12.63-7.73C274.69,513.43,294.16,473.51,294.16,473.51Z" transform="translate(0 0)"/><path class="cls-7" d="M163.16,427.21c25.06,30.5,93.69,45.21,93.69,45.21s-3.81,16.89-20.15,30.5a88.25,88.25,0,0,1-10.27,7.32c-32-27.48-53.76-58.81-59.17-70.23-2.28-4.82-5.35-11.45-8.5-18.3Q160.89,424.44,163.16,427.21Z" transform="translate(0 0)"/><path class="cls-4" d="M386,527.23c-.13,2-2.66,4-3.88,5.57-1.91,2.39-4,3.37-6.74,4.44-1.89.73-5.08,2-6.54.11-2.45-3.09,2.9-10.56,5.5-12.14C376.68,528.14,382.51,526.3,386,527.23Z" transform="translate(0 0)"/><path class="cls-4" d="M372.52,524.57c-1.69,3.06-12.89,10.67-14.94,4.19-.72-2.29,2-3.92,3.59-5.11,1.4-1,4.2-3.63,6-3.62C368.77,520,371.46,523.13,372.52,524.57Z" transform="translate(0 0)"/><path class="cls-4" d="M366.19,518.85c-3.45,1.88-10.35,6.05-13.59,1.33a3.07,3.07,0,0,1,1.24-4.77c1.76-.86,3.6.09,5.36.63a24.52,24.52,0,0,0,6.14.8A5.25,5.25,0,0,0,366.19,518.85Z" transform="translate(0 0)"/><path class="cls-8" d="M516.68,328.91a1.12,1.12,0,0,1,1.62-1.25c4.43,2.23,8,5.28,12.39,7.41a44.36,44.36,0,0,0-3.55,3.07C522.77,336.27,517.63,333.42,516.68,328.91Z" transform="translate(0 0)"/><path class="cls-8" d="M494,356.93c-.65-.94.58-1.9,1.45-1.45,5.76,2.93,10.66,6.42,16.54,8.85-.45,1.23-.89,2.48-1.32,3.76C503.71,365.76,497.55,362.16,494,356.93Z" transform="translate(0 0)"/><path class="cls-8" d="M477.11,391.23c-.41-.7.29-1.85,1.15-1.5,7.56,3.1,13.65,8,21.85,10.09.45.12.9.2,1.35.31l-1,3.71c-.47-.11-.94-.2-1.41-.32C491.56,401.59,481.28,398.29,477.11,391.23Z" transform="translate(0 0)"/><path class="cls-8" d="M460.42,423.79a.8.8,0,0,1,1.08-1.08c3.9,1.78,7.13,4.88,10.94,6.92a68.64,68.64,0,0,0,15.86,5.82c1.11.28,2.22.52,3.34.76q-.55,1.81-1.11,3.63c-1.85-.42-3.7-.88-5.51-1.41C476.85,436.06,464.4,432,460.42,423.79Z" transform="translate(0 0)"/><path class="cls-8" d="M431.32,449.53c-.59-.93.56-1.94,1.45-1.45,10.21,5.58,18.34,13.83,29.15,18.77a98.07,98.07,0,0,0,16.47,5.77q-.8,1.77-1.63,3.52a92.65,92.65,0,0,1-14.46-4.86C451.6,466.67,437.79,459.66,431.32,449.53Z" transform="translate(0 0)"/><path class="cls-8" d="M415.64,481.35a.84.84,0,0,1,1.39-.81c8.61,9.56,17.39,17,28.77,23.05,3.45,1.83,6.89,3.7,10.39,5.47q-1.34,1.6-2.73,3.15c-3.94-1.95-7.83-4-11.68-6.09C431.73,500.7,418.69,493.18,415.64,481.35Z" transform="translate(0 0)"/><path class="cls-8" d="M356.55,484.15a1.11,1.11,0,0,1,2-.85,252.07,252.07,0,0,0,37.47,46c4.78,4.58,10,9.38,15.64,13.76-1.23.58-2.48,1.13-3.73,1.68-4.86-3.73-9.45-7.72-13.72-11.6C380.16,520.36,361.61,503.11,356.55,484.15Z" transform="translate(0 0)"/><path class="cls-8" d="M315.12,485.89a1.1,1.1,0,0,1,2.14-.29c2,7.18,2.61,14.68,4.38,21.93a140.47,140.47,0,0,0,8.5,24.71A132.06,132.06,0,0,0,341,551.83c1.24,1.83,2.52,3.75,3.85,5.67-1.81,0-3.62,0-5.43-.1a138,138,0,0,1-12.27-21.79C320.32,520.91,313.3,502.34,315.12,485.89Z" transform="translate(0 0)"/><path class="cls-8" d="M277.8,508.54c-.47-7.48-1.47-15.47.29-22.81a1.14,1.14,0,0,1,2.19,0c3.63,14.74.94,30.93,3.91,46,1.08,5.45,2.5,10.84,4.11,16.19-1.33-.47-2.65-.94-4-1.44a130.56,130.56,0,0,1-4.27-16.66A186.79,186.79,0,0,1,277.8,508.54Z" transform="translate(0 0)"/><path class="cls-8" d="M226.37,471a1.12,1.12,0,0,1,2.13,0c1.68,6.74-1.65,13.57-1.88,20.4-.21,6.35.11,12.81.24,19.19q-1.8-1.54-3.56-3.1C222.61,495.21,222.67,483.1,226.37,471Z" transform="translate(0 0)"/><path class="cls-8" d="M194.41,457.1c.89-.73,2.5-.08,2.09,1.22-1.66,5.19-3.62,10.59-5.3,16.09-1.43-1.72-2.82-3.41-4.14-5.07C188.52,464.53,190.76,460.08,194.41,457.1Z" transform="translate(0 0)"/><path class="cls-6" d="M482.35,285s-12-33.77,26.15-55,58.83-4.36,68.63,16.34,19.61,61,43.58,69.18,32.14,0,43-5.45,31-16.89,41.94-1.09-6,47.39-37,52.83-73-19.06-89.33-33.77-43.58-26.69-59.92-12.53-46.84,64.82-64.27,83.88a266.35,266.35,0,0,1-35.4,32.14s1.63,40.85-11.44,67S385.39,533.42,375,531.79s-13.62-12.53-13.62-12.53,10.89-15.8,13.62-33.77,2.72-28.87,2.72-28.87-34.89,12.2-59.37,14.71c-21.24,2.18-24.24,2.18-24.24,2.18s-21,43-44.94,57.74-31.59,15.8-41.94,9.26-8.17-18-8.17-18,21.24-6,37.58-19.61,20.15-30.5,20.15-30.5-68.63-14.71-93.69-45.21-38.67-57.74-37.58-92.6,15.8-66.45,19.61-75.17A156.76,156.76,0,0,1,154.44,242l-26.15,5.45s57.22-50,63.18-46.84c6.81,3.57-17.43,75.17-17.43,75.17L167,246.92S149,285,146.82,316.64s19.06,79.52,67.54,99.68,144.34,25.6,191.73,1.09,79.52-82.79,80.61-95.87S482.35,285,482.35,285Z" transform="translate(0 0)"/><path class="cls-4" d="M649.7,371.78c-4.72-.17-5-6-4.35-10.58a76.22,76.22,0,0,0,13.17,1.39C657.18,367.1,653.8,371.93,649.7,371.78Z" transform="translate(0 0)"/><path class="cls-4" d="M632.25,367.48c-2.13-.88-2.65-6.85-2.08-10.36,3.08,1.05,6.18,2,9.27,2.77a10.18,10.18,0,0,1-2,4.75C636.51,365.91,634.15,368.26,632.25,367.48Z" transform="translate(0 0)"/><path class="cls-4" d="M614.52,360.14c-1.51-1.51-1.89-4.3-1.74-6.37a23.52,23.52,0,0,1,.68-3.58c3.33,1.61,6.75,3.13,10.24,4.52C621.87,359,618,363.68,614.52,360.14Z" transform="translate(0 0)"/><path class="cls-4" d="M599.29,352.13c-1.79-2.13-1.49-6.46-.29-9.81,2.6,1.58,5.33,3.15,8.17,4.66C605.3,351,602,355.35,599.29,352.13Z" transform="translate(0 0)"/><path class="cls-4" d="M583.62,341.45c-1.45-2.62,0-5.8,1.44-8.62,2.4,1.85,5.07,3.76,8,5.7C590.41,342.32,586.33,346.35,583.62,341.45Z" transform="translate(0 0)"/><path class="cls-4" d="M570.7,329.92a10.9,10.9,0,0,1,1.63-7.43,83,83,0,0,1,7,5.58l.54.47C576.95,332.26,571.89,335.11,570.7,329.92Z" transform="translate(0 0)"/><path class="cls-5" d="M506.72,236.57s6.13,7.76-1.63,15.93-14.71,8.58-14.71,8.58-7.35-15.52-25.74-27S434,220.63,434,220.63s16.75-4.9,42.08,1.23S506.72,236.57,506.72,236.57Z" transform="translate(0 0)"/><path class="cls-9" d="M566.65,281.09c.24-6.46-9.21-11.36-14.88-10.13a8.65,8.65,0,0,0-6.64,5.82c-.86,2.58-1.5,7.31,0,9.68a1,1,0,0,0,1.62,0c2.09-3.93-1.45-9.34,3.67-12.17s13.31,1.61,14.87,7a.69.69,0,0,0,1.36-.18Z" transform="translate(0 0)"/><path class="cls-9" d="M578.55,275.87c-1.12-3.27-3-6.06-2.2-9.69a8.68,8.68,0,0,1,2-4.08c1.56-1.69,3.16-1.51,5.19-1.6a1.08,1.08,0,0,0,.75-1.82c-3.63-3.18-8.33.84-9.94,4.29-2.21,4.74-.92,10.08,2.21,14.06.74.94,2.37-.08,2-1.16Z" transform="translate(0 0)"/><path class="cls-9" d="M665.91,327.53c3.84-2.88,9.95-3,13.56,1.09a11.17,11.17,0,0,1,2,10.42c-3.44,9.16-14,6.54-17.22-1.16C663.29,335.51,661.55,330.8,665.91,327.53Z" transform="translate(0 0)"/><path class="cls-9" d="M705.67,309c3.05,4.42,3.92,10.09,2.91,16.07-7.25-.73-16.09-10.86-9.19-17.71a8.26,8.26,0,0,1,3.09-2A20.42,20.42,0,0,1,705.67,309Z" transform="translate(0 0)"/></svg>