<svg id="Layer_1" data-name="Layer 1" xmlns="http://www.w3.org/2000/svg" viewBox="0 0 470.12 342.66"><defs><style>.cls-1{fill:#3c2014;}.cls-2{fill:#f3f3f4;}.cls-3{fill:#cfcfd0;}.cls-4{fill:#fad0bd;}.cls-5{fill:#fff;}.cls-6{fill:#1c191c;}</style></defs><title>goat</title><path class="cls-1" d="M103.74,205.6c-.61,12.11-1.17,24.76-7.76,35.37-6.79,10.93-18.57,14.72-27.05,23.65-5.46,5.74-12.54,20.87-3.2,27,8,5.31,27.84-8.4,34.83-12.66,23.36-14.25,42.32-43.51,34.4-71.25Z"/><path class="cls-1" d="M182.3,271.25c1.65,20.54-30.45,41.41-21.49,64.18,4.61,11.73,15.86,7.12,22.6.74,20.47-19.37,33.25-50,33.33-77.84Z"/><path class="cls-1" d="M401.82,236.92c6.76,15.42,42.93,68.26,65.28,44.32,8-8.57-1.63-15.62-8.88-23.5-13.21-14.37-27-25.76-28.41-46.65Z"/><path class="cls-1" d="M338.77,262.25c1.49,17.84,3.62,58.14,26,63.89,26.37,6.79,7.93-58.82,6.3-69.28Z"/><path class="cls-2" d="M46.16,119c-12.08,7.12-25.88-7.84-21.23-20.58C8,87.86,10.89,55.47,33,54.11,18.75,25.55,63.93.81,86.28,13.82c4.84-28.36,50.61-7.45,55.21,12.63C138.06,11,158,7,168.64,12.16c11.92,5.8,19.69,22.39,22.9,34.38,32.81-11.19,15.31,65.34,2.11,77.57-25.45,23.59-69.64,15-101.18,13.52-20.23-1-36.84-1.78-52.77-15.44Z"/><path class="cls-2" d="M84.9,173.37c-1.34-1-1-2.39-3.23-3-21.87,24.35,8.8,49.13,36.56,49.28-21.45,22.7,38,37.94,55.57,34.37-4,20.19,35.14,44.35,51.54,26,10.61,10,26.17,12.61,41.93,11.41,19.2-1.46,27.39-13.53,38.44-25.13,14.5,28.85,76.4-1.14,76.47-26.68,17.67.35,35.31-6.67,47.24-18.08,9.77-9.34,24.77-45.41,9.18-54.16C451,142.25,469.9,107.09,425.78,93c2.3-15.13,5.19-28.76-11-40-10.67-7.38-35.87-10.45-47.37-3.25C338.76,26.3,286.56,12.76,257.6,40,233.81,20,171.65,5.25,154,41c-24-8.29-36.14-15.94-54.88,6C88.61,59.31,66.62,92.07,79.5,107.32c-5.55,1.69-5.5,4.9-7.51,9.8Z"/><path class="cls-3" d="M75.22,43.08C65.77,15.87,21.38,10.5,5.61,34.77-7.89,55.54,3.36,104.5,35.26,88.71,46.75,83,58.91,60.39,37.85,59.23a32.76,32.76,0,0,0,3.27,4.47c-12.61,7.7-20-7.59-2.19-11,15.45-3,22.42,9.35,25,22.68Z"/><path class="cls-3" d="M149.48,47.93C162,20.13,207.23,38.1,216,59.75s-7.23,68.57-38.36,49.82c-11.12-6.7-18.18-36.4,2.23-34-5.43,25.41,32.6,6.45,7.94-5.11-24.28-11.38-26.73,17-27.07,32.31Z"/><path class="cls-4" d="M167.22,85.16c-1.74-18.27-9.45-38.3-26.19-47.77C124.44,28,89.48,28.45,73.64,39.16c-20,13.55-29.07,48.54-34.86,70.61a118.09,118.09,0,0,0-3.91,30.16c.15,14.25,3.61,28.26,13.72,36.38,22,17.67,73.48,17.63,97.94,5,12.37-6.39,18.53-18.92,21.31-33.39C171.91,126.8,168.77,101.54,167.22,85.16Z"/><path class="cls-2" d="M72.53,32.86C68.19,43,80.86,56.15,88,44.23c-4.89,11.47,22.33,15.21,24.31,1.17,5.07,12.37,28.87,14.47,34.83,1.68,10.25-22-32.37-24.49-43.67-24.33-11,.16-23.89,1.25-32.05,9.58Z"/><path class="cls-1" d="M71.86,165.92c16.39-.33,32.65-4,49.84-2.95-6.59,32.78-51.4,43.37-53.07,2.95Z"/><path class="cls-3" d="M160.78,193.22c-12.47,13.57,5,28.94,19.13,27.69-3.88,20.75,36.74,26.69,40.31,3.15-10.6,6-28.67,9.86-29-8-11.57,1.41-37.09-6.28-32-21.23Z"/><path class="cls-3" d="M394.86,119c4.89,11.54,5.11,26.29-9.84,29.15q-1.79-.06,0-.21c7.1,6.82,8.71,24.32-4.2,26,27.23,1.59,23.36-37.56,14-51.7Z"/><path class="cls-3" d="M256,96.36c-6.15-16,19.86-24,21.3-5.36,8.63-16.51,28-7.67,24,9.72-4.48-12.78-17-17.31-19.81-1.34C273.88,90.6,262,82.44,257.64,98Z"/><path class="cls-2" d="M378.72,59.23c1.09-.38,1.94-2.31,4.57-1.85,7.24-14.83-6.93-32.45-21.94-32.33-24.36.19-37.71,24.27-37.51,45.49Z"/><path class="cls-2" d="M288.31,38.24c-2.76-29.79-72-30.72-67.8,3.23Z"/><path class="cls-5" d="M143.4,110c13.53-6.84,16.13-28.31-1.4-29.9-7.78-.7-10.63,2.36-14.8,9.08C118.94,102.49,127.74,117.9,143.4,110Z"/><path class="cls-6" d="M140.86,99.33c9.82,4.07,11.69-17.58.35-13.4C135.12,88.18,135.81,97.24,140.86,99.33Z"/><path class="cls-5" d="M65.39,110c13.53-6.84,16.13-28.31-1.4-29.9-7.78-.7-10.63,2.36-14.8,9.08C40.93,102.49,49.73,117.9,65.39,110Z"/><path class="cls-6" d="M62.85,99.33c9.82,4.07,11.69-17.58.35-13.4C57.11,88.18,57.8,97.24,62.85,99.33Z"/></svg>