<svg id="Layer_1" data-name="Layer 1" xmlns="http://www.w3.org/2000/svg" viewBox="0 0 1366 768"><defs><style>.cls-1{fill:#d9d9d9;}.cls-2{fill:#3c2014;}.cls-3{fill:#f3f3f4;}.cls-4{fill:#cfcfd0;}.cls-5{fill:#fad0bd;}.cls-6{fill:#fff;}.cls-7{fill:#1c191c;}</style></defs><title>goat</title><rect class="cls-1" width="1366" height="768"/><path class="cls-2" d="M280.56,428.29c-.61,12.11-1.17,24.76-7.76,35.37-6.79,10.93-18.57,14.72-27.05,23.65-5.46,5.74-12.54,20.87-3.2,27,8,5.31,27.84-8.4,34.83-12.66,23.36-14.25,42.32-43.51,34.4-71.25Z" transform="translate(0 0)"/><path class="cls-2" d="M359.12,493.94c1.65,20.54-30.45,41.41-21.49,64.18,4.61,11.73,15.86,7.12,22.6.74,20.47-19.37,33.25-50,33.33-77.84Z" transform="translate(0 0)"/><path class="cls-2" d="M578.64,459.62c6.76,15.42,42.93,68.26,65.28,44.32,8-8.57-1.63-15.62-8.88-23.5-13.21-14.37-27-25.76-28.41-46.65Z" transform="translate(0 0)"/><path class="cls-2" d="M515.59,484.94c1.49,17.84,3.62,58.14,26,63.89,26.37,6.79,7.93-58.82,6.3-69.28Z" transform="translate(0 0)"/><path class="cls-3" d="M223,341.66c-12.08,7.12-25.88-7.84-21.23-20.58-16.9-10.51-14-42.91,8.11-44.27-14.29-28.56,30.89-53.3,53.24-40.29,4.84-28.36,50.61-7.45,55.21,12.63-3.43-15.48,16.47-19.49,27.15-14.29,11.92,5.8,19.69,22.39,22.9,34.38,32.81-11.19,15.31,65.34,2.11,77.57-25.45,23.59-69.64,15-101.18,13.52-20.23-1-36.84-1.78-52.77-15.44Z" transform="translate(0 0)"/><path class="cls-3" d="M261.72,396.07c-1.34-1-1-2.39-3.23-3-21.87,24.35,8.8,49.13,36.56,49.28-21.45,22.7,38,37.94,55.57,34.37-4,20.19,35.14,44.35,51.54,26,10.61,10,26.17,12.61,41.93,11.41,19.2-1.46,27.39-13.53,38.44-25.13,14.5,28.85,76.4-1.14,76.47-26.68,17.67.35,35.31-6.67,47.24-18.08C616,435,631,398.88,615.43,390.13c12.35-25.18,31.3-60.34-12.83-74.46,2.3-15.13,5.19-28.76-11-40-10.67-7.38-35.87-10.45-47.37-3.25-28.66-23.47-80.86-37-109.82-9.81-23.79-20-85.95-34.71-103.56,1.06-24-8.29-36.14-15.94-54.88,6C265.43,282,243.44,314.76,256.32,330c-5.55,1.69-5.5,4.9-7.51,9.8Z" transform="translate(0 0)"/><path class="cls-4" d="M252,265.78c-9.44-27.21-53.84-32.58-69.61-8.32-13.5,20.78-2.25,69.74,29.65,53.94,11.48-5.69,23.65-28.32,2.59-29.47a32.76,32.76,0,0,0,3.27,4.47c-12.61,7.7-20-7.59-2.19-11,15.45-3,22.42,9.35,25,22.68Z" transform="translate(0 0)"/><path class="cls-4" d="M326.3,270.62c12.54-27.8,57.75-9.83,66.56,11.82s-7.23,68.57-38.36,49.82c-11.12-6.7-18.18-36.4,2.23-34-5.43,25.41,32.6,6.45,7.94-5.11-24.28-11.38-26.73,17-27.07,32.31Z" transform="translate(0 0)"/><path class="cls-5" d="M344,307.86c-1.74-18.27-9.45-38.3-26.19-47.77-16.59-9.38-51.55-8.94-67.39,1.76-20,13.55-29.07,48.54-34.86,70.61a118.09,118.09,0,0,0-3.91,30.16c.15,14.25,3.61,28.26,13.72,36.38,22,17.67,73.48,17.63,97.94,5,12.37-6.39,18.53-18.92,21.31-33.39C348.73,349.49,345.6,324.24,344,307.86Z" transform="translate(0 0)"/><path class="cls-3" d="M249.35,255.56c-4.34,10.15,8.34,23.29,15.51,11.37-4.89,11.47,22.33,15.21,24.31,1.17,5.07,12.37,28.87,14.47,34.83,1.68,10.25-22-32.37-24.49-43.67-24.33-11,.16-23.89,1.25-32.05,9.58Z" transform="translate(0 0)"/><path class="cls-2" d="M248.68,388.62c16.39-.33,32.65-4,49.84-2.95-6.59,32.78-51.4,43.37-53.07,2.95Z" transform="translate(0 0)"/><path class="cls-4" d="M337.6,415.92c-12.47,13.57,5,28.94,19.13,27.69-3.88,20.75,36.74,26.69,40.31,3.15-10.6,6-28.67,9.86-29-8-11.57,1.41-37.09-6.28-32-21.23Z" transform="translate(0 0)"/><path class="cls-4" d="M571.68,341.66c4.89,11.54,5.11,26.29-9.84,29.15q-1.79-.06,0-.21c7.1,6.82,8.71,24.32-4.2,26,27.23,1.59,23.36-37.56,14-51.7Z" transform="translate(0 0)"/><path class="cls-4" d="M432.85,319.05c-6.15-16,19.86-24,21.3-5.36,8.63-16.51,28-7.67,24,9.72-4.48-12.78-17-17.31-19.81-1.34-7.62-8.79-19.53-16.95-23.86-1.41Z" transform="translate(0 0)"/><path class="cls-3" d="M555.54,281.92c1.09-.38,1.94-2.31,4.57-1.85,7.24-14.83-6.93-32.45-21.94-32.33-24.36.19-37.71,24.27-37.51,45.49Z" transform="translate(0 0)"/><path class="cls-3" d="M465.13,260.94c-2.76-29.79-72-30.72-67.8,3.23Z" transform="translate(0 0)"/><path class="cls-6" d="M320.22,332.68c13.53-6.84,16.13-28.31-1.4-29.9-7.78-.7-10.63,2.36-14.8,9.08C295.76,325.19,304.56,340.6,320.22,332.68Z" transform="translate(0 0)"/><path class="cls-7" d="M317.68,322c9.82,4.07,11.69-17.58.35-13.4C311.94,310.87,312.63,319.93,317.68,322Z" transform="translate(0 0)"/><path class="cls-6" d="M242.21,332.68c13.53-6.84,16.13-28.31-1.4-29.9-7.78-.7-10.63,2.36-14.8,9.08C217.75,325.19,226.55,340.6,242.21,332.68Z" transform="translate(0 0)"/><path class="cls-7" d="M239.67,322c9.82,4.07,11.69-17.58.35-13.4C233.93,310.87,234.62,319.93,239.67,322Z" transform="translate(0 0)"/></svg>