<svg xmlns="http://www.w3.org/2000/svg" xmlns:xlink="http://www.w3.org/1999/xlink" viewBox="0 0 369.73 561.27"><defs><style>.cls-1{isolation:isolate;}.cls-2,.cls-9{fill:#544503;}.cls-3{fill:url(#Degradado_sin_nombre_12);}.cls-4{fill:url(#Degradado_sin_nombre_12-2);}.cls-5{fill:#95773e;}.cls-6{fill:#ae966c;}.cls-7{fill:#846624;}.cls-8{fill:#4b3d0a;}.cls-9{opacity:0.4;mix-blend-mode:multiply;}.cls-10{fill:url(#Degradado_sin_nombre_10);}.cls-11{fill:url(#Degradado_sin_nombre_10-2);}.cls-12{fill:url(#Degradado_sin_nombre_10-3);}.cls-13{fill:url(#Degradado_sin_nombre_17);}.cls-14{fill:#342600;}.cls-15{fill:url(#Degradado_sin_nombre_22);}</style><linearGradient id="Degradado_sin_nombre_12" y1="431.6" x2="83.91" y2="431.6" gradientUnits="userSpaceOnUse"><stop offset="0" stop-color="#6c561e"/><stop offset="1" stop-color="#846624"/></linearGradient><linearGradient id="Degradado_sin_nombre_12-2" x1="170.22" y1="457.88" x2="239.52" y2="457.88" xlink:href="#Degradado_sin_nombre_12"/><linearGradient id="Degradado_sin_nombre_10" x1="125.5" y1="381.26" x2="48.75" y2="415.43" gradientUnits="userSpaceOnUse"><stop offset="0" stop-color="#95773e"/><stop offset="1" stop-color="#846624"/></linearGradient><linearGradient id="Degradado_sin_nombre_10-2" x1="200.39" y1="355.49" x2="341.87" y2="447.36" xlink:href="#Degradado_sin_nombre_10"/><linearGradient id="Degradado_sin_nombre_10-3" x1="102.24" y1="214.71" x2="20.55" y2="159.61" xlink:href="#Degradado_sin_nombre_10"/><radialGradient id="Degradado_sin_nombre_17" cx="198.97" cy="257.35" r="76.5" gradientTransform="translate(0 85.71) scale(1 0.67)" gradientUnits="userSpaceOnUse"><stop offset="0" stop-color="#846624"/><stop offset="1" stop-color="#95773e"/></radialGradient><linearGradient id="Degradado_sin_nombre_22" x1="304.6" y1="228.31" x2="347.26" y2="447.78" gradientUnits="userSpaceOnUse"><stop offset="0" stop-color="#544503" stop-opacity="0"/><stop offset="0.1" stop-color="#4f4104" stop-opacity="0.17"/><stop offset="0.45" stop-color="#433407" stop-opacity="0.62"/><stop offset="0.76" stop-color="#3b2d09" stop-opacity="0.9"/><stop offset="1" stop-color="#382a0a"/></linearGradient></defs><title>horse</title><g class="cls-1"><g id="Layer_1" data-name="Layer 1"><path class="cls-2" d="M267.83,275.51s-9.63-51.82,57.76-48S371.24,332.9,339,374.43s-8.48,76.6-8.48,76.6-54.24-13-50.85-76.6,39-78.82,20.34-100S267.83,275.51,267.83,275.51Z"/><path class="cls-3" d="M30.51,350.7,0,415.11l38.14,57.63v38.14s18.65,11,26.27-24.58L46.62,466,28,422.78l55.94-30.56Z"/><path class="cls-4" d="M171.72,370.74s-8.33,62.36,41.51,88.45L196.62,513.1,170.22,533s9.39,24.18,43.89,14l-.42-27.76L234.18,429s-2.83-37,5.35-62.7Z"/><path class="cls-5" d="M87.3,63.37S42.38,99,40.68,249c0,0-14.41,39-25.43,48.31,0,0-8.48,127.14,138.15,130.53s165.28-83.06,118.66-161.89c0,0-82.66,11.83-156.38-20.29,0,0-14-89-8.05-156Z"/><path class="cls-5" d="M55.94,338.83,98,459.18v67L77,550.72s29.81,23.73,48.45,0l-9.75-28.82L111.88,450s34.75-47.13,31.36-107.14Z"/><path class="cls-6" d="M81.69,412.45s-43.54-12.31-61.06-73.62c0,0,22.08-28,30.53-59l16.36-5.37S55.17,348.48,81.69,412.45Z"/><path class="cls-7" d="M111.88,450s17.65-23.15,28.74-69.3,2.85-63.11,2.85-63.11S135.33,384.69,111.88,450Z"/><path class="cls-8" d="M38.14,494.49v16.39s18.65,11,26.27-24.58L59.81,481C55.54,489.06,47.58,494.7,38.14,494.49Z"/><path class="cls-8" d="M179.47,526l-9.25,7s9.39,24.18,43.89,14l-.28-18.42a44.44,44.44,0,0,1-7.87,2.71C196.53,533.92,186.57,532.32,179.47,526Z"/><path class="cls-8" d="M85.41,540.89,77,550.72s29.81,23.73,48.45,0L121.81,540a38.9,38.9,0,0,1-12.47,4.81C101.56,546.73,91.32,546.69,85.41,540.89Z"/><path class="cls-9" d="M328.91,448.18a80.73,80.73,0,0,1-16.16-42.39c-4.24-44.92,22-82.21,35.6-122.9,7.63-22-10.17-45.77-32.21-46.62-19.84-1.86-40.11,10.34-48.59,28.31-.16,1.71-.21,3.29-.2,4.7,9.34-13.64,25.54-21.85,41.16-21.14,15.26.85,22.88,18.65,19.49,33.06-5.93,28-27.12,45.77-33.06,74.59a117.21,117.21,0,0,0,13.64,84.5,70,70,0,0,0,22,10.76A32.17,32.17,0,0,1,328.91,448.18Z"/><path class="cls-10" d="M67.52,274.41s-5.66,22.7-1.42,72.51S98,459.18,98,459.18v67S143.8,339.68,67.52,274.41Z"/><path class="cls-5" d="M175.45,374.43s3.39,45.77,30.51,67.81,48.31,17,48.31,17v57.63l-30.8,30.51s22.33,20.34,56.23-4.24L272.07,438s-19.49-17-20.34-54.24Z"/><path class="cls-11" d="M153.41,427.82,272.07,265.94c32.27,54.56,34.29,112.17-16.77,141.71,0,0,5.08,20.27,16.77,30.34h0l7.63,105.1-25.43-83.91s-30.14,6.45-62.11-32.8h0S170.49,428.83,153.41,427.82Z"/><path class="cls-7" d="M254.27,459.18s-21.19,5.09-48.31-17-30.51-67.81-30.51-67.81C185.8,402,217,445.86,254.27,459.18Z"/><path class="cls-8" d="M256,535.47c-4.56-.51-10.93-1.92-15.14-5.33l-17.36,17.19s22.33,20.34,56.23-4.24l-.87-11.94A48.47,48.47,0,0,1,256,535.47Z"/><path class="cls-12" d="M87.3,63.37S42.38,99,40.68,249c0,0-14.41,39-25.43,48.31,0,0,41-16.29,66.11-51.65S87.3,63.37,87.3,63.37Z"/><path class="cls-13" d="M272.07,265.94s-82.66,11.83-156.38-20.29c0,0-.14,55.61,70.49,65.21S272.07,265.94,272.07,265.94Z"/><path class="cls-2" d="M80.25,51.87S53.4,75.23,39.41,134.56,52.13,261.28,52.13,261.28s-8.23-53.88-8.35-69.53C46.19,223.56,61,238,61,238s-15-41.68-11-73.74c.42,27.12,11.44,37.29,11.44,37.29s-6-46.62-3.64-71.62S78.73,73.38,78.73,73.38l3.17-11Z"/><path class="cls-2" d="M107,158.73s4.78,63.5,20.1,80.09c18.39,19.92,29.23,17.8,29.23,17.8s27,.95,52.69,6.2,35,20.5,35,20.5-10.75-6.36-20.63-8.9c7.49,5.08,7.92,14.83,7.92,14.83a99,99,0,0,0-25-17c6.78,6.36,6.78,17,6.78,17s-13.6-20.49-39.87-26.5c0,0-41.07-5.19-60.14-17.1C113.15,245.64,107.9,188.36,107,158.73Z"/><path class="cls-7" d="M155.43,132.63l4.34-16.7-8.33-5.46c-4.13-22.91-7.79-43.31-9-50.49,0,0,5.09-38.75-11-60,0,0,2.54,36.25-2.54,49L98,51.5s-4-34.75-22.6-45.77l5.93,56.79s-11,47.31-17,57.14L98,188.81l-10.74,22s22.88,25.43,47.46,20.34S167,196.44,167,196.44,161.35,165.39,155.43,132.63Z"/><circle class="cls-14" cx="92.98" cy="126.26" r="3.98"/><circle class="cls-14" cx="149.51" cy="122.27" r="3.98"/><path class="cls-9" d="M93,51.87s-3.56-25.79-11.61-36c0,0,5.68,36.45,5.81,42Z"/><path class="cls-9" d="M133.07,49.81s5-14.09,4.24-27.55c0,0,4.66,16.41,2.12,29.6Z"/><path class="cls-6" d="M98,51.5s2.4,31.78-9,46.62l19.49,13.14s10.17,17.38,11.44,43.23S98,188.81,98,188.81l-10.74,22s17,22.88,47.46,20.34S167,196.44,167,196.44l-5-27.53s-16.46-8.35-23.24-37.57A35.1,35.1,0,0,1,149,97.11l-2.14-11.9A122.72,122.72,0,0,1,128.83,49Z"/><path class="cls-2" d="M97,45.08s12.8-4.59,24.24,1.76S133.07,71,133.07,71s-2.12-5.93-6.36-7.63c2.12,5.09.42,13.56.42,13.56s-3.39-8.9-6.78-13.56c1.27,9.75-4.66,17.8-4.66,17.8a36.68,36.68,0,0,0-3.81-15.26c-1.27,13.56-7.67,19.3-7.67,19.3S109.62,62.52,98,51.5Z"/><path class="cls-14" d="M123,210.25s-7.63-18.65-13.56-15.68S123,210.25,123,210.25Z"/><path class="cls-14" d="M149,210.25s7.63-18.65,13.56-15.68S149,210.25,149,210.25Z"/><path class="cls-15" d="M272.07,265.94l-4.67,1c.62-14.56,8.29-42.22,58.19-39.37C393,231.38,371.24,332.9,339,374.43s-8.48,76.6-8.48,76.6-54.24-13-50.85-76.6,39-78.82,20.34-100c-11.16-12.68-20.5-9.79-26.2-5.42Z"/></g></g></svg>