<svg xmlns="http://www.w3.org/2000/svg" xmlns:xlink="http://www.w3.org/1999/xlink" viewBox="0 0 1366 768"><defs><style>.cls-1{isolation:isolate;}.cls-2{opacity:0.3;}.cls-3{fill:#ffffb3;}.cls-11,.cls-4{fill:#544503;}.cls-5{fill:url(#Degradado_sin_nombre_12);}.cls-6{fill:url(#Degradado_sin_nombre_12-2);}.cls-7{fill:#95773e;}.cls-8{fill:#ae966c;}.cls-9{fill:#846624;}.cls-10{fill:#4b3d0a;}.cls-11{opacity:0.4;mix-blend-mode:multiply;}.cls-12{fill:url(#Degradado_sin_nombre_10);}.cls-13{fill:url(#Degradado_sin_nombre_10-2);}.cls-14{fill:url(#Degradado_sin_nombre_10-3);}.cls-15{fill:url(#Degradado_sin_nombre_17);}.cls-16{fill:#342600;}.cls-17{fill:url(#Degradado_sin_nombre_22);}</style><linearGradient id="Degradado_sin_nombre_12" x1="227.78" y1="522.28" x2="311.69" y2="522.28" gradientUnits="userSpaceOnUse"><stop offset="0" stop-color="#6c561e"/><stop offset="1" stop-color="#846624"/></linearGradient><linearGradient id="Degradado_sin_nombre_12-2" x1="398" y1="548.57" x2="467.31" y2="548.57" xlink:href="#Degradado_sin_nombre_12"/><linearGradient id="Degradado_sin_nombre_10" x1="353.29" y1="471.95" x2="276.53" y2="506.12" gradientUnits="userSpaceOnUse"><stop offset="0" stop-color="#95773e"/><stop offset="1" stop-color="#846624"/></linearGradient><linearGradient id="Degradado_sin_nombre_10-2" x1="428.17" y1="446.18" x2="569.65" y2="538.05" xlink:href="#Degradado_sin_nombre_10"/><linearGradient id="Degradado_sin_nombre_10-3" x1="330.03" y1="305.4" x2="248.34" y2="250.3" xlink:href="#Degradado_sin_nombre_10"/><radialGradient id="Degradado_sin_nombre_17" cx="426.75" cy="348.04" r="76.5" gradientTransform="translate(0 115.91) scale(1 0.67)" gradientUnits="userSpaceOnUse"><stop offset="0" stop-color="#846624"/><stop offset="1" stop-color="#95773e"/></radialGradient><linearGradient id="Degradado_sin_nombre_22" x1="532.38" y1="319" x2="575.04" y2="538.47" gradientUnits="userSpaceOnUse"><stop offset="0" stop-color="#544503" stop-opacity="0"/><stop offset="0.1" stop-color="#4f4104" stop-opacity="0.17"/><stop offset="0.45" stop-color="#433407" stop-opacity="0.62"/><stop offset="0.76" stop-color="#3b2d09" stop-opacity="0.9"/><stop offset="1" stop-color="#382a0a"/></linearGradient></defs><title>horse</title><g class="cls-1"><g id="Layer_1" data-name="Layer 1"><g class="cls-2"><rect class="cls-3" width="1366" height="768"/></g><path class="cls-4" d="M495.62,366.2s-9.63-51.82,57.76-48S599,423.58,566.81,465.12s-8.48,76.6-8.48,76.6-54.24-13-50.85-76.6,39-78.82,20.34-100S495.62,366.2,495.62,366.2Z" transform="translate(0 0)"/><path class="cls-5" d="M258.3,441.38,227.78,505.8l38.14,57.63v38.14s18.65,11,26.27-24.58l-17.8-20.34-18.65-43.18,55.94-30.56Z" transform="translate(0 0)"/><path class="cls-6" d="M399.51,461.43s-8.33,62.36,41.51,88.45l-16.61,53.92L398,623.67s9.39,24.18,43.89,14l-.42-27.76L462,519.69s-2.83-37,5.35-62.7Z" transform="translate(0 0)"/><path class="cls-7" d="M315.08,154.06s-44.92,35.6-46.62,185.62c0,0-14.41,39-25.43,48.31,0,0-8.48,127.14,138.15,130.53s165.28-83.06,118.66-161.89c0,0-82.66,11.83-156.38-20.29,0,0-14-89-8.05-156Z" transform="translate(0 0)"/><path class="cls-7" d="M283.72,429.52l42.1,120.36v67l-21,24.58s29.81,23.73,48.45,0l-9.75-28.82-3.81-71.86S374.41,493.61,371,433.59Z" transform="translate(0 0)"/><path class="cls-8" d="M309.47,503.14s-43.54-12.31-61.06-73.62c0,0,22.08-28,30.53-59l16.36-5.37S283,439.17,309.47,503.14Z" transform="translate(0 0)"/><path class="cls-9" d="M339.66,540.74s17.65-23.15,28.74-69.3,2.85-63.11,2.85-63.11S363.11,475.38,339.66,540.74Z" transform="translate(0 0)"/><path class="cls-10" d="M265.93,585.18v16.39s18.65,11,26.27-24.58l-4.61-5.26C283.32,579.75,275.37,585.39,265.93,585.18Z" transform="translate(0 0)"/><path class="cls-10" d="M407.26,616.7l-9.25,7s9.39,24.18,43.89,14l-.28-18.42a44.44,44.44,0,0,1-7.87,2.71C424.31,624.61,414.35,623,407.26,616.7Z" transform="translate(0 0)"/><path class="cls-10" d="M313.19,631.58l-8.42,9.83s29.81,23.73,48.45,0l-3.63-10.75a38.9,38.9,0,0,1-12.47,4.81C329.35,637.42,319.11,637.38,313.19,631.58Z" transform="translate(0 0)"/><path class="cls-11" d="M556.7,538.87a80.73,80.73,0,0,1-16.16-42.39c-4.24-44.92,22-82.21,35.6-122.9,7.63-22-10.17-45.77-32.21-46.62-19.84-1.86-40.11,10.34-48.59,28.31-.16,1.71-.21,3.29-.2,4.7,9.34-13.64,25.54-21.85,41.16-21.14,15.26.85,22.88,18.65,19.49,33.06-5.93,28-27.12,45.77-33.06,74.59A117.21,117.21,0,0,0,536.38,531a70,70,0,0,0,22,10.76A32.17,32.17,0,0,1,556.7,538.87Z" transform="translate(0 0)"/><path class="cls-12" d="M295.31,365.1s-5.66,22.7-1.42,72.51,31.93,112.25,31.93,112.25v67S371.59,430.37,295.31,365.1Z" transform="translate(0 0)"/><path class="cls-7" d="M403.23,465.12s3.39,45.77,30.51,67.81,48.31,17,48.31,17v57.63L451.25,638s22.33,20.34,56.23-4.24l-7.63-105.1s-19.49-17-20.34-54.24Z" transform="translate(0 0)"/><path class="cls-13" d="M381.2,518.51,499.86,356.63c32.27,54.56,34.29,112.17-16.77,141.71,0,0,5.08,20.27,16.77,30.34h0l7.63,105.1-25.43-83.91s-30.14,6.45-62.11-32.8h0S398.27,519.52,381.2,518.51Z" transform="translate(0 0)"/><path class="cls-9" d="M482.06,549.87s-21.19,5.09-48.31-17-30.51-67.81-30.51-67.81C413.58,492.71,444.78,536.55,482.06,549.87Z" transform="translate(0 0)"/><path class="cls-10" d="M483.75,626.15c-4.56-.51-10.93-1.92-15.14-5.33L451.25,638s22.33,20.34,56.23-4.24l-.87-11.94A48.47,48.47,0,0,1,483.75,626.15Z" transform="translate(0 0)"/><path class="cls-14" d="M315.08,154.06s-44.92,35.6-46.62,185.62c0,0-14.41,39-25.43,48.31,0,0,41-16.29,66.11-51.65S315.08,154.06,315.08,154.06Z" transform="translate(0 0)"/><path class="cls-15" d="M499.86,356.63s-82.66,11.83-156.38-20.29c0,0-.14,55.61,70.49,65.21S499.86,356.63,499.86,356.63Z" transform="translate(0 0)"/><path class="cls-4" d="M308,142.55s-26.86,23.37-40.84,82.7S279.91,352,279.91,352s-8.23-53.88-8.35-69.53c2.42,31.82,17.25,46.22,17.25,46.22s-15-41.68-11-73.74c.42,27.12,11.44,37.29,11.44,37.29s-6-46.62-3.64-71.62,20.93-56.52,20.93-56.52l3.17-11Z" transform="translate(0 0)"/><path class="cls-4" d="M334.82,249.42s4.78,63.5,20.1,80.09c18.39,19.92,29.23,17.8,29.23,17.8s27,.95,52.69,6.2,35,20.5,35,20.5-10.75-6.36-20.63-8.9c7.49,5.08,7.92,14.83,7.92,14.83a99,99,0,0,0-25-17c6.78,6.36,6.78,17,6.78,17s-13.6-20.49-39.87-26.5c0,0-41.07-5.19-60.14-17.1C340.94,336.33,335.68,279,334.82,249.42Z" transform="translate(0 0)"/><path class="cls-9" d="M383.22,223.32l4.34-16.7-8.33-5.46c-4.13-22.91-7.79-43.31-9-50.49,0,0,5.09-38.75-11-60,0,0,2.54,36.25-2.54,49l-30.79,2.54s-4-34.75-22.6-45.77l5.93,56.79s-11,47.31-17,57.14l33.62,69.15-10.74,22S338,327,362.55,321.88s32.21-34.75,32.21-34.75S389.13,256.08,383.22,223.32Z" transform="translate(0 0)"/><circle class="cls-16" cx="320.76" cy="216.95" r="3.98"/><circle class="cls-16" cx="377.3" cy="212.96" r="3.98"/><path class="cls-11" d="M320.76,142.55s-3.56-25.79-11.61-36c0,0,5.68,36.45,5.81,42Z" transform="translate(0 0)"/><path class="cls-11" d="M360.85,140.5s5-14.09,4.24-27.55c0,0,4.66,16.41,2.12,29.6Z" transform="translate(0 0)"/><path class="cls-8" d="M325.82,142.19s2.4,31.78-9,46.62l19.49,13.14s10.17,17.38,11.44,43.23-21.89,34.33-21.89,34.33l-10.74,22s17,22.88,47.46,20.34,32.21-34.75,32.21-34.75l-5-27.53s-16.46-8.35-23.24-37.57a35.1,35.1,0,0,1,10.28-34.24l-2.14-11.9a122.72,122.72,0,0,1-18.06-36.25Z" transform="translate(0 0)"/><path class="cls-4" d="M324.75,135.77s12.8-4.59,24.24,1.76,11.87,24.16,11.87,24.16-2.12-5.93-6.36-7.63c2.12,5.09.42,13.56.42,13.56s-3.39-8.9-6.78-13.56c1.27,9.75-4.66,17.8-4.66,17.8a36.68,36.68,0,0,0-3.81-15.26c-1.27,13.56-7.67,19.3-7.67,19.3s5.42-22.69-6.17-33.7Z" transform="translate(0 0)"/><path class="cls-16" d="M350.82,300.94s-7.63-18.65-13.56-15.68S350.82,300.94,350.82,300.94Z" transform="translate(0 0)"/><path class="cls-16" d="M376.81,300.94s7.63-18.65,13.56-15.68S376.81,300.94,376.81,300.94Z" transform="translate(0 0)"/><path class="cls-17" d="M499.86,356.63l-4.67,1c.62-14.56,8.29-42.22,58.19-39.37,67.4,3.85,45.64,105.36,13.43,146.89s-8.48,76.6-8.48,76.6-54.24-13-50.85-76.6,39-78.82,20.34-100c-11.16-12.68-20.5-9.79-26.2-5.42Z" transform="translate(0 0)"/></g></g></svg>