<svg id="Layer_1" data-name="Layer 1" xmlns="http://www.w3.org/2000/svg" viewBox="0 0 1366 768"><defs><style>.cls-1{opacity:0.7;}.cls-2{fill:#ccebc5;}.cls-3{fill:#edb77c;}.cls-4{fill:#eba970;}.cls-5{fill:#65300c;}.cls-6{fill:#512300;}.cls-7{fill:#421700;}.cls-8{fill:#fff;}</style></defs><title>monkey</title><g class="cls-1"><rect class="cls-2" width="1366" height="768"/></g><path class="cls-3" d="M244.3,263.34s-3.71-18.56-1.62-27.6,14.85-19.72,22.27-19.95,20.41,4.41,21.34,10.67-.93,6-5.1,3.94-9.74-5.57-14.38-3.94-8.81,14.61-9,15.31,0,4.41,3.48,3.94,6.49-.93,7.89-3a28.16,28.16,0,0,0,3.25-6.73c.93-3,5.8-3.48,6.49,3.25s-1.86,9.51-6,13-7,.7-11.13,7-5.33,9.28-6.73,9.51S244.3,263.34,244.3,263.34Z" transform="translate(0 0)"/><path class="cls-4" d="M286.47,229.95c-1.2.18-3-.09-5.52-1.87-5.26-3.71-11-7.89-16.7-4.79s-9.74,12.22-11.91,15.77a11.13,11.13,0,0,0-.77,9.74,7.72,7.72,0,0,1,.31,4.48s-2-4.33-4.18-5.1c0,0-.77,6.8-1.39,9.28s-3.09-1.08-3.09-1.08l2.24,7.64c1.52.89,4.27,2.46,6.46,3.54l5.55-1.67c1-1.56,2.25-3.77,4.23-6.72,4.18-6.26,7-3.48,11.13-7s6.73-6.26,6-13c-.36-3.46-1.82-5-3.29-5.28.93,1.94,1.64,5.12-.35,9.46-3.4,7.42-9,7.42-11.91,6.34s-5.41-3.87-5.26-5.41c0,0,0-.1,0-.14a4,4,0,0,1-.35-2.41c.23-.7,4.41-13.69,9-15.31s10.21,1.86,14.38,3.94C284.34,232,286.16,232.49,286.47,229.95Z" transform="translate(0 0)"/><path class="cls-3" d="M305.72,564.93s-20.55,5.84-18,19.26c0,0-2.6,8.87,4.76,10.6,0,0,1.08,5,7.36,5.19s16.88-15.15,26.83-20.55C326.71,579.43,313.08,563.63,305.72,564.93Z" transform="translate(0 0)"/><path class="cls-4" d="M308.68,591.4c-4.57,4-8.23,7.47-13.5,7.09a8.29,8.29,0,0,0,4.7,1.49c6.27.22,16.88-15.15,26.83-20.55,0,0-13.63-15.79-21-14.5a41.38,41.38,0,0,0-9.84,4.53c1.77-.22,4-.29,5.24.58a2.19,2.19,0,0,1,.34.3c1.88,2-7.93,6.2-10.53,12.84,0,0,11-7.36,14.42-6.92s4,3.32,1.59,5-8.65,7.21-10.39,10.53c0,0,12.55-9.66,15.15-8.8S313.44,587.22,308.68,591.4Z" transform="translate(0 0)"/><path class="cls-5" d="M354.84,347.91c-.48,1.44-6.25,61.56-3.85,90.9s6.25,56.27,61.56,59.64S477,479.69,486.62,456.6,470.75,332,470.75,332Z" transform="translate(0 0)"/><path class="cls-3" d="M381.68,362.55c-.51,2.56-27.14,118.79,32.77,115.21s54.79-86.53,40.45-114.18S381.68,362.55,381.68,362.55Z" transform="translate(0 0)"/><path class="cls-6" d="M354.25,352.83c-.09.93-.2,2-.31,3.13,5.48,3.73,32.6,20.58,75.93,20.58a246.87,246.87,0,0,0,49.75-4.74c-4.46-22.18-8.87-39.76-8.87-39.76L357.33,347.57Z" transform="translate(0 0)"/><path class="cls-4" d="M429.87,376.53A267.69,267.69,0,0,0,459.33,375a66.85,66.85,0,0,0-4.43-11.37c-14.34-27.65-73.22-1-73.22-1-.06.33-.55,2.5-1.23,6A153,153,0,0,0,429.87,376.53Z" transform="translate(0 0)"/><path class="cls-6" d="M331.17,244.16s-10.94-15.54-34.4-4.35c-22.87,10.9-19.59,66.62,21.33,60.52C318.11,300.33,335.09,252,331.17,244.16Z" transform="translate(0 0)"/><path class="cls-7" d="M330.3,256.35s-25.25-13.06-30.91,1.74,3.92,28.3,17,27.87S330.74,263.75,330.3,256.35Z" transform="translate(0 0)"/><path class="cls-6" d="M498,244.16s10.94-15.54,34.4-4.35c22.87,10.9,19.59,66.62-21.33,60.52C511.06,300.33,494.07,252,498,244.16Z" transform="translate(0 0)"/><path class="cls-7" d="M498.86,256.35s25.25-13.06,30.91,1.74-3.92,28.3-17,27.87S498.43,263.75,498.86,256.35Z" transform="translate(0 0)"/><path class="cls-5" d="M417,171.64s-15.46-15.46-31.55-14.23c0,0,11.13,6.19,12.37,16.7,0,0-21-8.66-34-2.47,0,0,8.66,1.86,13,7.42,0,0-29.69,2.47-42.68,29.69S323,265.66,323,265.66s-16.08,13.61-17.94,35.88a48.62,48.62,0,0,1,9.9-9.28S303.84,308.34,310,326.9a29.69,29.69,0,0,1,6.8-11.13s0,47.79,94.64,49.48c103.92,1.86,102.21-47.47,102.21-66.65,0,0,4.48,1.24,7.89,11.6,0,0,1.24-19.17-10.52-30.93,0,0,7.42,2.47,13.61,11.13,0,0,3.09-17.94-19.79-27.22C504.87,263.19,514.14,164.22,417,171.64Z" transform="translate(0 0)"/><path class="cls-6" d="M412.55,203.34c-.54,1.28-5.57-12.53-19.95-11.6,0,0,4.18,2.78,5.1,6.49,0,0-18.56-12.06-33.87-4.64,0,0,6.49,2.32,8.81,7,0,0-16.24-2.78-28.3,15.31s-10.67,42.22-2.78,49.17c0,0-8.81,7.42-11.6,15.77,0,0,5.57-4.18,8.81-3.25,0,0-13.92,16.24-12.53,34.79l6.49-6.49s-9.28,52.42,79.79,48.71S506.72,311.9,499.76,291a11.31,11.31,0,0,1,5.57,7.89s2.78-17.63-15.31-29.23c0,0,7.42.93,11.13,6,0,0-3.25-11.13-12.53-15.31,0,0,9.28-33.4-5.57-48.71s-31.55-14.38-39.43-12.06c0,0,3.71-7.42,8.35-7.42,0,0-17.63-1.86-25.52,9.74,0,0-3.25-5.1,3.25-10.21C429.71,191.74,417.19,192.21,412.55,203.34Z" transform="translate(0 0)"/><path class="cls-4" d="M414.87,220.51s-19.48-22.27-48.25-11.13S337.86,253,355.49,263.19c0,0-64,82.58,51,82.58s93.71-60.31,64-86.29c0,0,25.05-41.75-8.35-51S414.87,220.51,414.87,220.51Z" transform="translate(0 0)"/><path class="cls-3" d="M415,226.4s-16.75-19.9-41.47-10-24.72,39-9.57,48.09c0,0-55,73.8,43.86,73.8s80.54-53.9,55-77.11c0,0,21.53-37.31-7.18-45.61S415,226.4,415,226.4Z" transform="translate(0 0)"/><path class="cls-5" d="M358.4,465.31s-36.73,20.58-45.06,31.52-.69,57.83-2.26,62-6.73.46-15.59,10.88c0,0,3.65-2.08,11.2-1.89a36.73,36.73,0,0,0-4.56,11.27s8.21-5.54,11.72-5.54c0,0-2.34,5.21-5.47,10.94a24,24,0,0,0,10.29-6.38s-.82,3.65-2.39,9.9c0,0,17.71-9.38,18.23-21.88s-4.69-39.59-1.56-49,57.31-25,72.94-20.84C405.9,496.31,386.54,463.23,358.4,465.31Z" transform="translate(0 0)"/><path class="cls-3" d="M524.85,573.43s22.59,6.42,19.74,21.17c0,0,2.85,9.75-5.23,11.65,0,0-1.19,5.47-8.09,5.71s-18.55-16.65-29.49-22.59C501.78,589.36,516.76,572,524.85,573.43Z" transform="translate(0 0)"/><path class="cls-4" d="M521.59,602.52c5,4.42,9,8.21,14.84,7.79a9.11,9.11,0,0,1-5.17,1.64c-6.9.24-18.55-16.65-29.49-22.59,0,0,15-17.36,23.07-15.93a45.48,45.48,0,0,1,10.82,5c-1.94-.25-4.42-.32-5.76.63a2.42,2.42,0,0,0-.38.33c-2.06,2.22,8.72,6.82,11.57,14.11,0,0-12-8.09-15.85-7.61s-4.44,3.65-1.74,5.55S533,599.35,534.91,603c0,0-13.79-10.62-16.65-9.67S516.36,597.92,521.59,602.52Z" transform="translate(0 0)"/><path class="cls-5" d="M466.94,463.93s40.37,22.62,49.53,34.64.76,63.56,2.48,68.14,7.4.5,17.13,12c0,0-4-2.29-12.31-2.08a40.37,40.37,0,0,1,5,12.38s-9-6.08-12.88-6.08c0,0,2.58,5.73,6,12a26.36,26.36,0,0,1-11.31-7s.91,4,2.62,10.88c0,0-19.47-10.31-20-24s5.15-43.52,1.72-53.83-63-27.49-80.17-22.9C414.74,498,436,461.64,466.94,463.93Z" transform="translate(0 0)"/><path class="cls-5" d="M359.35,351.48a269.15,269.15,0,0,1-39,8.81c-21.8,3.25-29.69-2.78-35.26-10.21s-25.52-66.34-24.59-77.94,4.18-16.7,4.18-16.7a10.81,10.81,0,0,0-5.57,4.64,13.38,13.38,0,0,1-.93-9.28s-4.18.93-5.57,10.21c0,0-1.39-7.42-3.25-9.28,0,0-2.32,7.89-2.32,12.06l-4.64-9.74a584,584,0,0,0,7,66.34c6,37.58,13.45,55.21,45,63.09s60.31,21.34,60.31,21.34Z" transform="translate(0 0)"/><path class="cls-3" d="M480.48,159.92s-11.77-2.45-20.85-5.4-18.64.25-23.3,4.17-6.87,7.6-7.85,11.28,3.68,12.75,7.11,12.51,5.89-2.94,4.41-6.38,0-6.13,3.43-9.32,9.07-2.21,12.51-.49,2.7,5.89-.74,7.85-6.62,3.92-3.92,5.64,9.32,2.7,12.75-1.72,11.77-3.92,15.7-3.68,9.32-5.64,8.34-5.64S480.48,159.92,480.48,159.92Z" transform="translate(0 0)"/><path class="cls-4" d="M440,176.11c-1.47-3.43,0-6.13,3.43-9.32s9.07-2.21,12.51-.49a3.76,3.76,0,0,1,1.56,5.59c4.13-2.59,5-8,.65-9.67-4.87-1.86-15.08-.7-18.56,2.55A13,13,0,0,0,436.13,178c.65,2.37.13,3.71-.59,4.5h.06C439,182.24,441.48,179.54,440,176.11Z" transform="translate(0 0)"/><path class="cls-4" d="M479.74,174.39c2.23.14,4.9-1.69,6.64-3.31-.35-1.9-.94-4-1.34-5.37-.47-.57-.95-1.15-1.42-1.74-2.21-.73-7.66-2.45-9.68-2.45-2.55,0-10,4.41-10,4.41l9,3.94s-2.55-1.16-6.26.7-5.8,6.49-9.28,8.35c-1.92,1-4.81.56-7-.06a2.09,2.09,0,0,0,.86.94c2.7,1.72,9.32,2.7,12.75-1.72S475.82,174.14,479.74,174.39Z" transform="translate(0 0)"/><path class="cls-5" d="M470.69,355.66s42.68-9.28,61.24-35.26,21.15-46.39,21-68c-.15-27.53-19-52-37.73-63.71-11-6.94-43.92-14.23-43.92-14.23l9.28-3.71-13-4.95s8-3.09,11.75-1.86c0,0-4.33-5.57-9.28-6.19,0,0,23.5-1.86,49.48,12.37s50.57,43,55.51,87.52S544.3,347,522.65,363.08s-41.44,28.45-45.15,36.49S467,359.37,470.69,355.66Z" transform="translate(0 0)"/><circle class="cls-7" cx="385.34" cy="257.15" r="7.58"/><circle class="cls-8" cx="382.4" cy="254.34" r="2.13"/><circle class="cls-7" cx="442.7" cy="257.15" r="7.58"/><circle class="cls-8" cx="439.76" cy="254.34" r="2.13"/><ellipse class="cls-7" cx="409.57" cy="284.82" rx="2.74" ry="3.83"/><ellipse class="cls-7" cx="421.07" cy="284.82" rx="2.74" ry="3.83"/><path class="cls-4" d="M400.26,287s-.55-11.5,15.88-10.41,13.42,11.23,13.42,11.23,4.65-4.11-.27-10.13-14.51-5.48-21.36-3.56S396.43,282.63,400.26,287Z" transform="translate(0 0)"/><path class="cls-7" d="M369,299.06s14.79,17.66,45.73,17.66,51.48-21.49,51.48-21.49-12.25,24-50.59,24S369,299.06,369,299.06Z" transform="translate(0 0)"/></svg>