<svg id="Layer_1" data-name="Layer 1" xmlns="http://www.w3.org/2000/svg" viewBox="0 0 1366 768"><defs><style>.cls-1{opacity:0.7;}.cls-2{fill:#bebada;}.cls-3{fill:#fbecb5;}.cls-4{fill:#2f0000;}.cls-5{fill:#c70117;}.cls-6{fill:#ffab0e;}</style></defs><title>ox</title><g class="cls-1"><rect class="cls-2" width="1366" height="768"/></g><g id="_Group_" data-name="&lt;Group&gt;"><g id="_Group_2" data-name="&lt;Group&gt;"><g id="_Group_3" data-name="&lt;Group&gt;"><path class="cls-3" d="M299.67,214s-39.76-44.71,3.91-95.53c0,0-33.86,10-45.28,44.54C249,191.1,270.18,221.5,270.18,221.5Z" transform="translate(0 0)"/></g><g id="_Group_4" data-name="&lt;Group&gt;"><path class="cls-3" d="M341.07,111.94c2.06,0,54.71,64.9,14.24,106.08l30.2,11.85s22.91-27.73,12.66-67.88C386.44,116.05,341.07,111.94,341.07,111.94Z" transform="translate(0 0)"/></g><g id="_Group_5" data-name="&lt;Group&gt;"><g id="_Group_6" data-name="&lt;Group&gt;"><g id="_Group_7" data-name="&lt;Group&gt;"><path class="cls-4" d="M409.34,566.43l-18,10.34c-16-25.61-45.68-78.32-45.68-78.32s11.9,3.86,32.46,8.24Z" transform="translate(0 0)"/></g><g id="_Group_8" data-name="&lt;Group&gt;"><path class="cls-3" d="M417.51,582.06s-13.76,6.61-16.41,8.32c-.66.43-4.45-5.09-9.76-13.62l18-10.34Z" transform="translate(0 0)"/></g><g id="_Group_9" data-name="&lt;Group&gt;"><path class="cls-4" d="M567.51,594.77,544,591.27l9.73-74.33c15-1.71,30.34-4.15,45.92-7.48Z" transform="translate(0 0)"/></g><g id="_Group_10" data-name="&lt;Group&gt;"><polygon class="cls-3" points="560.87 612.39 541.26 612.25 544.01 591.26 567.51 594.77 560.87 612.39"/></g><g id="_Group_11" data-name="&lt;Group&gt;"><path class="cls-3" d="M678.57,602.06l-26.11,6.67L648,591.33l28.37-7.26C677.76,595.28,678.57,602.06,678.57,602.06Z" transform="translate(0 0)"/></g><g id="_Group_12" data-name="&lt;Group&gt;"><polygon class="cls-3" points="334.54 594.2 316.61 592.6 312.65 568.34 337.01 571.53 334.54 594.2"/></g><g id="_Group_13" data-name="&lt;Group&gt;"><path class="cls-4" d="M228.66,324.13l-14.79-94.41c49.73-13.95,114.58-28.87,154.92-25.45,72.65,6.15,96.39,99,96.39,99s173.86,55.49,181,71.19c5.84,12.89,24,158.15,30.25,209.64L648,591.33l-22.25-87q-13.07,3.62-26,6.36c-15.58,3.33-30.93,5.77-45.92,7.48-74.42,8.48-139.64-1.05-176.71-8.95-20.56-4.38-32.46-8.24-32.46-8.24L337,571.53l-24.36-3.19L272.84,324.6Z" transform="translate(0 0)"/></g></g><g id="_Group_14" data-name="&lt;Group&gt;"><path class="cls-3" d="M141.43,251.84s4.45-1.08,8-2.28c-1.41-10.34-2.11-24.55,4.36-25.88,6.89-1.42,15.8,10.14,17.6,18.87,3.89-1.25,3.17-1.17,7.85-2.61.38-9.39,2.13-22.93,9.13-22,7.33,1,12,9.66,14.22,15,3.65-1.06,7.41-2.13,11.26-3.21l14.79,94.41-68.94-.73Z" transform="translate(0 0)"/></g></g><g id="_Group_15" data-name="&lt;Group&gt;"><path class="cls-4" d="M404.05,218.36c-14-17.17,69.2-75.89,69.2-75.89s17.14,35.14-9.39,64C443.12,229.05,409.42,225,404.05,218.36Z" transform="translate(0 0)"/></g><g id="_Group_16" data-name="&lt;Group&gt;"><path class="cls-4" d="M255.62,218.84c1.45,9.3-63.27-17.38-72.1-52.21C183.52,166.63,244.21,145.45,255.62,218.84Z" transform="translate(0 0)"/></g><g id="_Group_17" data-name="&lt;Group&gt;"><path class="cls-3" d="M334.79,228.41A89.63,89.63,0,0,0,330,238.69c-.7,1.76-1.34,3.55-1.9,5.36s-1.11,3.65-1.51,5.53a48.87,48.87,0,0,0-.92,5.73,23.07,23.07,0,0,0,.16,6,11.5,11.5,0,0,0,2.67,5.9,14,14,0,0,0,1.32,1.14,10.53,10.53,0,0,0,1.52.85l.8.3.4.15.22.05h.15l.17,0a6.84,6.84,0,0,0,.74.1c.36,0,.71,0,1.07,0a4.53,4.53,0,0,0,.92-.15c.28-.06.57-.12.84-.2.51-.19,1-.35,1.52-.57a21.53,21.53,0,0,0,2.71-1.48,36.2,36.2,0,0,0,4.68-3.59,94.51,94.51,0,0,0,8-8.21q3.71-4.33,7.12-8.87c2.24-3.06,4.45-6.11,6.49-9.31l-1.59.25q3.94,2.73,7.93,5.4t8.06,5.24q-3.59-3.2-7.26-6.3T367,235.94l-.85-.7-.75,1c-2.29,2.93-4.61,5.88-7,8.74s-4.8,5.71-7.32,8.44a93,93,0,0,1-7.83,7.8,40.32,40.32,0,0,1-4.24,3.3,17.54,17.54,0,0,1-2.22,1.25c-.37.19-.74.28-1.11.44-.18.06-.35.08-.53.13a2,2,0,0,1-.47.09,1.62,1.62,0,0,0-.34.05,4.93,4.93,0,0,1-.65-.08l-.17,0h-.15l.18,0-.26-.1-.52-.18a7.42,7.42,0,0,1-1-.49c-.29-.2-.56-.44-.84-.66a8.36,8.36,0,0,1-2-4.18,31.17,31.17,0,0,1,.14-10.68,97,97,0,0,1,2.38-10.88C332.45,235.56,333.56,232,334.79,228.41Z" transform="translate(0 0)"/></g><g id="_Group_18" data-name="&lt;Group&gt;"><path class="cls-3" d="M310,230.11q-3.33,4.7-6.72,9.3L299.83,244l-3.53,4.47q-1.77,2.22-3.65,4.34c-1.25,1.41-2.5,2.81-3.82,4.12a43.88,43.88,0,0,1-4.11,3.66,15.49,15.49,0,0,1-4.4,2.56,4.93,4.93,0,0,1-2,.27,3.08,3.08,0,0,1-1.57-.82,5.72,5.72,0,0,1-1.58-4,20.06,20.06,0,0,1,.39-5.24,49.25,49.25,0,0,1,1.3-5.37c.53-1.79,1.18-3.55,1.83-5.32s1.36-3.52,2.11-5.26c1.49-3.47,3.09-6.94,4.8-10.32l.51-1-1-.16c-3.68-.59-7.37-1.14-11.07-1.6,3.56,1.12,7.14,2.14,10.74,3.13l-.51-1.17c-1.08,1.62-2.06,3.26-3,4.93s-1.9,3.35-2.78,5.08A82.57,82.57,0,0,0,273.77,247a47.84,47.84,0,0,0-1.62,5.71,23.35,23.35,0,0,0-.52,6.16,10.57,10.57,0,0,0,.21,1.63,9.18,9.18,0,0,0,.46,1.66,9.41,9.41,0,0,0,.8,1.63,7.9,7.9,0,0,0,1.23,1.44l.27.24.14.12,0,0,0,0,.16.13.11.06.87.49a3.13,3.13,0,0,0,.93.36c.32.09.65.18,1,.24a8.35,8.35,0,0,0,3.61-.45,18.7,18.7,0,0,0,5.45-3.21,44.56,44.56,0,0,0,4.29-4.12A85,85,0,0,0,298.4,250c1.12-1.57,2.17-3.19,3.2-4.81s2-3.26,3-4.93C306.53,237,308.35,233.6,310,230.11Z" transform="translate(0 0)"/></g><g id="_Group_19" data-name="&lt;Group&gt;"><circle class="cls-5" cx="360.24" cy="303.81" r="14.97" transform="translate(-64.02 98.69) rotate(-14.34)"/></g><g id="_Group_20" data-name="&lt;Group&gt;"><path class="cls-5" d="M190.68,230.74c3.43-.86,12.06,21.13,6.38,23.1S183.86,232.44,190.68,230.74Z" transform="translate(0 0)"/></g><g id="_Group_21" data-name="&lt;Group&gt;"><path class="cls-4" d="M638.51,370.67S683.07,395.85,706,479.61l-5.8,1.48s-34.44-80.31-59.2-92.53Z" transform="translate(0 0)"/></g><g id="_Group_22" data-name="&lt;Group&gt;"><path class="cls-3" d="M718.89,556.16s17.58-15.83,14.68-39.29C730,488.14,706,479.61,706,479.61l-5.8,1.48s-13.47,17.86-7.91,39.62S718.89,556.16,718.89,556.16Z" transform="translate(0 0)"/></g><g id="_Group_23" data-name="&lt;Group&gt;"><path class="cls-3" d="M243.62,315.07l.8,0c.52,0,1.28,0,2.25-.13s2.14-.2,3.48-.38,2.85-.39,4.48-.74l2.55-.51,2.7-.66c1.86-.44,3.79-1,5.79-1.63l3-1c1-.35,2.05-.69,3.06-1.13,2-.85,4.1-1.65,6.11-2.63l3-1.47,2.91-1.6c1-.53,1.92-1,2.83-1.62l2.67-1.74c.87-.58,1.76-1.11,2.56-1.72l2.34-1.8,2.2-1.71c.69-.57,1.32-1.19,1.94-1.75,1.23-1.13,2.35-2.17,3.31-3.12s1.7-1.89,2.33-2.63c1.27-1.46,2-2.32,2-2.32s-.92.64-2.46,1.8c-.77.58-1.7,1.28-2.74,2.11L297,291.17c-.68.46-1.35,1-2.1,1.44l-2.3,1.45-2.43,1.53-2.6,1.5-2.68,1.54-2.81,1.47-2.85,1.49L276.31,303c-1.93,1-3.93,1.81-5.89,2.67s-3.92,1.62-5.81,2.4-3.73,1.46-5.51,2.05-3.44,1.23-5,1.74c-3.11,1-5.74,1.85-7.58,2.41l-2.15.64Z" transform="translate(0 0)"/></g><g id="_Group_24" data-name="&lt;Group&gt;"><path class="cls-5" d="M158.11,236.49c3.66-2.21,10.53,23.08,5.59,25.88S152.31,240,158.11,236.49Z" transform="translate(0 0)"/></g><g id="_Group_25" data-name="&lt;Group&gt;"><path class="cls-6" d="M197.18,247.36c8.13,3.59,19.7,50.25-10.88,55.07-26.24,4.13-27.22-44-27.22-44l7.84.05s-.32,40.26,20.93,35.34,5-42.74,5-42.74Z" transform="translate(0 0)"/></g></g></g></svg>