<svg id="Layer_1" data-name="Layer 1" xmlns="http://www.w3.org/2000/svg" viewBox="0 0 481.26 426.73"><defs><style>.cls-1{fill:#e15b6b;}.cls-2{fill:#ce3e56;}.cls-3{fill:#ea808a;}.cls-4{fill:#fff;}.cls-5{fill:#f6c3c6;}.cls-6{fill:#e36d7c;}</style></defs><title>pig</title><path class="cls-1" d="M419.92,217.85c-.08-.44-.14-.88-.18-1.32s-.08-2.46-.05,0a25.68,25.68,0,0,1,.21-3.35c.13-1.13.34-2.24.58-3.35.06-.29.13-.58.2-.87.27-1.14-.4,1.52-.09.37.19-.7.4-1.39.61-2.08a57.18,57.18,0,0,1,3-7.55c.29-.6.59-1.2.9-1.79l.48-.89c-.9,1.65-.31.55-.11.2.72-1.25,1.49-2.47,2.31-3.67s1.52-2.13,2.34-3.14c.4-.5.82-1,1.24-1.46l.63-.7c.72-.78-1.14,1.15,0,0a31.94,31.94,0,0,1,2.68-2.39c.45-.36.92-.7,1.39-1l.7-.47c-1.8,1.16-.6.37-.17.13a17.91,17.91,0,0,1,2.9-1.28c1-.36-1.65.45-.6.17l.74-.17a13.22,13.22,0,0,1,1.74-.24c.5,0,1.54,0-.65,0,.25,0,.5,0,.75,0a12,12,0,0,1,1.5.21c1.05.2-1.58-.44-.54-.14.25.07.5.16.75.25a13.47,13.47,0,0,1,1.74.78c-2-1-.09,0,.36.32a18.3,18.3,0,0,1,1.47,1.17c.31.27,1.16,1.13-.16-.17.25.25.49.5.72.76a14.6,14.6,0,0,1,1.46,2c-1.15-1.75,0,.13.27.61a16.11,16.11,0,0,1,.69,1.65c.16.45.44,1.56-.13-.5.07.26.13.53.19.8a13.42,13.42,0,0,1,.25,1.82c.08,1.09,0-1.71,0-.64,0,.25,0,.49,0,.74a12.23,12.23,0,0,1-.19,1.43c-.25,1.37.52-1.63,0,0a11.78,11.78,0,0,1-.6,1.45c-.58,1.21.92-1.45,0-.06a11.23,11.23,0,0,1-.76,1c-.84,1,1.28-1.2.09-.11a9.94,9.94,0,0,1-1.09.85c-.77.53,1.51-.89.7-.43l-.5.26a8,8,0,0,1-1,.41c2.34-.77,1-.28.35-.19-1.53.22,1.78.12.25,0-.17,0-.35,0-.52-.07-.88-.15,1.72.48.86.22-.57-.17-1.87-.91.22.25a6.27,6.27,0,0,1-.93-.66c-.72-.6,1.21,1.21.55.53a7.81,7.81,0,0,1-.55-.65c-.14-.18-.26-.37-.38-.56,1.14,1.75.59,1,.36.52a12.2,12.2,0,0,1-.62-1.45c-.16-.44-.46-1.53.12.48-.08-.3-.15-.6-.22-.9a21.82,21.82,0,0,1-.38-2.35c-.09-.75-.11-1.5-.17-2.25,0-.44,0-1.71,0,.27,0-.34,0-.67,0-1a16.81,16.81,0,0,1,.25-2c.08-.42.39-1.6-.1.28.11-.41.24-.82.38-1.23a17.51,17.51,0,0,1,.88-2.06c.54-1.09-.76,1.3-.15.25.22-.37.45-.73.69-1.08a20.77,20.77,0,0,1,1.38-1.79c.28-.34,1.42-1.49,0-.06.31-.31.63-.61,1-.91.58-.53,1.19-1,1.81-1.48.36-.27.73-.53,1.1-.78s1.8-1.12.08-.08a31.8,31.8,0,0,1,4.64-2.26c.75-.3,1.52-.56,2.29-.81,1.24-.39-1.51.42-.25.08.44-.12.89-.23,1.34-.33a32.16,32.16,0,0,1,5.05-.73l1,0c-2.12.07-.46,0,0,0,.87,0,1.73.1,2.59.21s1.46.23,2.18.39c1,.23-1.59-.45,0,0,.39.12.77.26,1.16.4a6.14,6.14,0,1,0,4.53-11.41c-11.83-4.39-26.9-.75-35.92,7.94a25.06,25.06,0,0,0-8.09,19c.11,5.86,1.64,12.4,6.63,16,4.71,3.44,10.53,2.56,15.13-.47,4.1-2.7,6.65-7.9,7.06-12.69,1.07-12.75-11-25.11-23.9-23.1-10.32,1.61-18.17,10.93-23,19.52a62.29,62.29,0,0,0-6.19,14.56c-1.26,4.73-2.18,9.72-1.31,14.61a6.14,6.14,0,0,0,12.13-1.84Z"/><path class="cls-1" d="M380.45,299.2c-12.12,35-24.45,75.84-32.77,112.74-5.23,2.61-10.63.31-13.95-3.35-4.44,5.16-10.74,8.44-16.81,10.49-4-6-3-17.1-4.84-24.15-2.37-9.2-4.83-17.77-6.86-27.26s-4.5-17.88-3-28.06c4.41-30.7,20-38.82,48.34-49.53Z"/><path class="cls-2" d="M114.15,357.88c-10,5.35-20.16,14-31.09,17a85.29,85.29,0,0,0,2.39-12.09c-9.3.28-19.3,3.18-28.23,2.65.59,0,14.83-21.31,16.44-23.14,8.92-10.06,19.09-19.92,30.64-26.93,8.55-5.2,19.29-10.65,29.27-6.2C164.52,323,127.67,350.67,114.15,357.88Z"/><path class="cls-3" d="M416.17,343.49c-34.85,44.26-99.06,69.83-151.25,67.29-38.64-1.88-82.7-20.28-113.79-52.24q-3-3.08-5.82-6.33a143.23,143.23,0,0,1-22.07-33.8c-6.11-13.18-9.2-27.85-10-42.76a160,160,0,0,1,1.08-28,176.49,176.49,0,0,1,7.18-32.35c24.28-74.89,100.77-118.4,169.7-114.52,48,2.71,93.7,37,122.11,82.64C442.46,230.19,450,300.56,416.17,343.49Z"/><path class="cls-1" d="M292.82,190.27c3,22.25.7,47-8.3,69.52-14.93,37.29-72.07,83-123.27,90.69-5.37.8-10.7,1.38-15.94,1.73a143.23,143.23,0,0,1-22.07-33.8c-6.11-13.18-9.2-27.85-10-42.76a160,160,0,0,1,1.08-28c2.7-2.68,5.33-5.4,7.82-8.17,17.45-19.42,30.09-40.53,51.48-58.14,8.29-6.83,79-55.24,87.62-40.88l4.84-2C275.31,156.91,289.9,168.45,292.82,190.27Z"/><path class="cls-1" d="M244,112.39c12.31-23,65-47.86,90.47-40.63-7.13,11.1-15.15,17.43-19.1,30.7-4,13.43-1.85,26.23-5.59,39.64-8.25,29.58-31.47,26.43-55.84,32.28Z"/><path class="cls-1" d="M43.3,116.4C26.73,97,41.59,81.9,52.21,62.61,62,44.72,72.18,19.2,66.86,0,104.37,13.94,112.29,70.28,97,102.06Z"/><path class="cls-3" d="M182.83,70.35C113.6,61.63,29.76,88.49,4.3,160.47c-22.7,64.19,49.12,133.76,105.42,150.41,72.54,21.45,165.26-16,177.9-97.55C298.07,145.92,251,78.94,182.83,70.35Z"/><path class="cls-4" d="M28.4,130.88c-16.14,20.09-1.54,49.6,21,57.26,26,8.83,50.7-22.79,42.61-46.77-6.11-18.12-24-28.49-42.71-23.32C39.74,120.71,32.89,125.29,28.4,130.88Z"/><path d="M67.22,170.22a19.22,19.22,0,0,0,15.67-33.35c-12.57-11.7-34.76-1.73-31.78,16C52.61,161.7,57.69,169,67.22,170.22Z"/><path class="cls-4" d="M76.52,156.46c4.79,4.21,12.91-.44,11.37-6.82-1.23-5.11-7-8.18-10.79-4.38C73.95,148.42,72.8,153.19,76.52,156.46Z"/><path class="cls-4" d="M182.69,135.24c-18.3,22.77-1.74,56.22,23.85,64.91,29.46,10,57.47-25.83,48.3-53-6.93-20.54-27.26-32.3-48.41-26.43C195.54,123.73,187.78,128.91,182.69,135.24Z"/><path d="M226.69,179.84A21.78,21.78,0,0,0,244.46,142c-14.25-13.27-39.4-2-36,18.09C210.13,170.18,215.89,178.44,226.69,179.84Z"/><path class="cls-4" d="M237.24,164.24c5.43,4.77,14.63-.5,12.88-7.73-1.4-5.79-7.94-9.27-12.23-5C234.32,155.13,233,160.53,237.24,164.24Z"/><path class="cls-5" d="M96.8,291.41c21.46,6.24,45.29,6.55,64.23,1.54,15-4,35.72-13.79,40.68-30,6.13-20.05-10.6-35.1-21.6-48.9-7.75-9.72-10.91-26-20.38-33.58-35.32-28.19-74.9-1.49-99.83,26.85C46.08,223,38,243.21,51.24,261.75,61.61,276.28,78.33,286,96.8,291.41Z"/><path class="cls-6" d="M136.76,256.14c10.9,14.3,36.68,8.84,36.52-11C173.06,217.3,112.86,224.79,136.76,256.14Z"/><path class="cls-6" d="M66.53,245.53c9,11.75,30.14,7.26,30-9.07C96.36,213.61,46.89,219.77,66.53,245.53Z"/><path class="cls-3" d="M221.06,84.87C253.14,67,293.14,67.54,331.44,72.39c-28.43,4.82-73.34,26.24-73.87,58.09Z"/><path class="cls-3" d="M133.08,79.73c-.23-7.24-8.13-17.68-10.86-24.64-3.28-8.38-7.78-18.34-13.54-25.62C101.34,20.21,80,.59,67.63,2c7.86,13.35,15,24,17.87,39.25,2.85,15,3.31,30.37,5.79,45.46Z"/><path class="cls-3" d="M166.84,363.87c-2.95,7.58-3.08,24.46-6.11,35.4-1.16,4.18-8.19,14.88-3.45,18.55,2.52,1.94,12.32-5.41,16.74-5.17,11.58,16.36,16.82,21.15,25.27-.3,3.69-9.37,17-41.51,12.51-46.61Z"/><path class="cls-3" d="M432.7,300c-12.12,35-24.45,75.84-32.77,112.74-5.23,2.61-10.63.31-13.95-3.35-4.44,5.16-10.74,8.44-16.81,10.49-4-6-3-17.1-4.84-24.15-2.37-9.2-4.83-17.77-6.86-27.26s-4.5-17.88-3-28.06c4.41-30.7,20-38.82,48.34-49.53Z"/></svg>