<svg id="Layer_1" data-name="Layer 1" xmlns="http://www.w3.org/2000/svg" viewBox="0 0 374.73 429.5"><defs><style>.cls-1{fill:#b0d6d6;}.cls-2{fill:#cae4e5;}.cls-3{fill:#88bfbf;}.cls-4{fill:#dfefef;}.cls-5{fill:#fbbfaa;}.cls-6{fill:#1a6d8c;}.cls-7{fill:#f9aaaa;}.cls-8{fill:#bc5c5c;}.cls-9{fill:#f15a4c;}.cls-10{fill:#fff;}</style></defs><title>rabbit</title><path class="cls-1" d="M237.11,309.69s3.34-9,14.92-6.67c0,0,18.85-11,21.79,13,0,0,20-1.18,13.35,22.38,0,0,15.51,12.76,0,26.5,0,0,7.85,23.56-11.78,22.18,0,0-3.73,12-16.88,6.87s-16.29-56.53-16.29-56.53Z"/><path class="cls-2" d="M91.65,291.23s-23.16,48.68-20,96.19c0,0-2,34.16,20,35.73s19.63-33,19.63-33l18.85,4.72s-4.71,35.33,23.95,34.55c0,0,12.17,2,18.85-15.31l11.78,1.18s-2,13.35,29.45,12.56,47.11-8.64,45.93-35.73-8.24-89.91-33.77-100.9-36.51,6.68-37.69,7.46-75.38,3.92-76.56,3.92S91.65,291.23,91.65,291.23Z"/><path class="cls-3" d="M172.92,414.12s3-9,2.63-17.59a41.4,41.4,0,0,1,1.59,18Z"/><path class="cls-3" d="M184.69,415.3s.68-21.11,24.36-18.26c0,0-23.2-4.8-27.72,17.92Z"/><path class="cls-4" d="M113.89,159.69S75,167.1,62.07,204.79c-14.76,43,12.17,96.58,67.53,110.32s115.82-6.28,120.14-51.82S224.21,184,224.21,184,322,189.48,342,98.4c0,0,7.46,22.38,21.59,25.52s19.24-68.71-11.78-86.37-109.93,0-159,115.82c0,0-.79-3.92-24.34-7.06,0,0-4.71-160.57-133.88-145.27C34.59,1-6.24,17.52.82,68.95c0,0,29.45-.39,42-21.2C42.83,47.75,24,108.65,113.89,159.69Z"/><path class="cls-5" d="M214.79,171.81s13.35-77.74,86.77-91.87C301.56,79.94,297.63,154.54,214.79,171.81Z"/><path class="cls-5" d="M141,148.65S139.8,66.59,69.53,42.25C69.53,42.25,66,111,141,148.65Z"/><ellipse class="cls-6" cx="191.32" cy="214.57" rx="17.4" ry="9.16" transform="translate(-83.19 299.96) rotate(-65.56)"/><path class="cls-6" d="M142.28,196.78c-4,8.75-10.93,14.15-15.54,12.06s-5.12-10.89-1.14-19.64,10.94-14.15,15.55-12.06S146.26,188,142.28,196.78Z"/><path class="cls-7" d="M94.29,220.74c-6.37-3.3-10.62-7.76-9.47-10s7.23-1.33,13.61,2,10.62,7.77,9.48,10S100.68,224,94.29,220.74Z"/><path class="cls-7" d="M194.4,265.11c-6.37-3.29-10.61-7.76-9.47-10s7.23-1.33,13.61,2,10.62,7.77,9.48,10S200.78,268.41,194.4,265.11Z"/><path class="cls-8" d="M159.57,241.33s-7.07-10.47-26.7-11.78c0,0-2.88,9.42,7.33,19.63C140.2,249.18,148.58,249.7,159.57,241.33Z"/><path class="cls-9" d="M102.63,245.78l65.32,32.46S148.05,307,117.69,292.88C89.08,279.56,102.63,245.78,102.63,245.78Z"/><path class="cls-10" d="M137.22,187c-1.57,3.46-4.31,5.58-6.13,4.75s-2-4.29-.45-7.74,4.32-5.58,6.14-4.76S138.8,183.59,137.22,187Z"/><path class="cls-10" d="M194.61,208.77c-1.57,3.45-4.31,5.58-6.13,4.75s-2-4.29-.45-7.75,4.32-5.58,6.14-4.75S196.19,205.32,194.61,208.77Z"/></svg>