<svg id="Layer_1" data-name="Layer 1" xmlns="http://www.w3.org/2000/svg" viewBox="0 0 1366 768"><defs><style>.cls-1{fill:#80b0d3;}.cls-2{fill:#b0d6d6;}.cls-3{fill:#cae4e5;}.cls-4{fill:#88bfbf;}.cls-5{fill:#dfefef;}.cls-6{fill:#fbbfaa;}.cls-7{fill:#1a6d8c;}.cls-8{fill:#f9aaaa;}.cls-9{fill:#bc5c5c;}.cls-10{fill:#f15a4c;}.cls-11{fill:#fff;}</style></defs><title>rabbit</title><rect class="cls-1" width="1366" height="768"/><path class="cls-2" d="M460.94,482.57s3.34-9,14.92-6.67c0,0,18.85-11,21.79,13,0,0,20-1.18,13.35,22.38,0,0,15.51,12.76,0,26.5,0,0,7.85,23.56-11.78,22.18,0,0-3.73,12-16.88,6.87S466,510.25,466,510.25Z" transform="translate(0 0)"/><path class="cls-3" d="M315.48,464.12s-23.16,48.68-20,96.19c0,0-2,34.16,20,35.73s19.63-33,19.63-33L354,567.77s-4.71,35.33,23.95,34.55c0,0,12.17,2,18.85-15.31l11.78,1.18s-2,13.35,29.45,12.56,47.11-8.64,45.93-35.73-8.24-89.91-33.77-100.9-36.51,6.68-37.69,7.46-75.38,3.92-76.56,3.92S315.48,464.12,315.48,464.12Z" transform="translate(0 0)"/><path class="cls-4" d="M396.75,587s3-9,2.63-17.59a41.4,41.4,0,0,1,1.59,18Z" transform="translate(0 0)"/><path class="cls-4" d="M408.52,588.18s.68-21.11,24.36-18.26c0,0-23.2-4.8-27.72,17.92Z" transform="translate(0 0)"/><path class="cls-5" d="M337.72,332.57s-38.87,7.41-51.82,45.1c-14.76,43,12.17,96.58,67.53,110.32s115.82-6.28,120.14-51.82S448,356.87,448,356.87s97.76,5.49,117.78-85.59c0,0,7.46,22.38,21.59,25.52s19.24-68.71-11.78-86.37-109.93,0-159,115.82c0,0-.79-3.92-24.34-7.06,0,0-4.71-160.57-133.88-145.27,0,0-40.83,16.49-33.77,67.92,0,0,29.45-.39,42-21.2C266.66,220.64,247.82,281.53,337.72,332.57Z" transform="translate(0 0)"/><path class="cls-6" d="M438.62,344.7S452,267,525.39,252.83C525.39,252.83,521.46,327.42,438.62,344.7Z" transform="translate(0 0)"/><path class="cls-6" d="M364.81,321.53s-1.18-82.06-71.45-106.4C293.36,215.14,289.83,283.85,364.81,321.53Z" transform="translate(0 0)"/><ellipse class="cls-7" cx="415.15" cy="387.46" rx="17.4" ry="9.16" transform="translate(-109.37 605.07) rotate(-65.56)"/><path class="cls-7" d="M366.11,369.66c-4,8.75-10.93,14.15-15.54,12.06s-5.12-10.89-1.14-19.64S360.37,347.93,365,350,370.09,360.91,366.11,369.66Z" transform="translate(0 0)"/><path class="cls-8" d="M318.12,393.62c-6.37-3.3-10.62-7.76-9.47-10s7.23-1.33,13.61,2,10.62,7.77,9.48,10S324.51,396.92,318.12,393.62Z" transform="translate(0 0)"/><path class="cls-8" d="M418.23,438c-6.37-3.29-10.61-7.76-9.47-10s7.23-1.33,13.61,2,10.62,7.77,9.48,10S424.62,441.3,418.23,438Z" transform="translate(0 0)"/><path class="cls-9" d="M383.4,414.21s-7.07-10.47-26.7-11.78c0,0-2.88,9.42,7.33,19.63C364,422.06,372.41,422.58,383.4,414.21Z" transform="translate(0 0)"/><path class="cls-10" d="M326.46,418.66l65.32,32.46s-19.89,28.79-50.25,14.65C312.91,452.45,326.46,418.66,326.46,418.66Z" transform="translate(0 0)"/><path class="cls-11" d="M361.06,359.93c-1.57,3.46-4.31,5.58-6.13,4.75s-2-4.29-.45-7.74,4.32-5.58,6.14-4.76S362.63,356.48,361.06,359.93Z" transform="translate(0 0)"/><path class="cls-11" d="M418.44,381.66c-1.57,3.45-4.31,5.58-6.13,4.75s-2-4.29-.45-7.75,4.32-5.58,6.14-4.75S420,378.2,418.44,381.66Z" transform="translate(0 0)"/></svg>