<svg id="Layer_1" data-name="Layer 1" xmlns="http://www.w3.org/2000/svg" viewBox="0 0 1366 768"><defs><style>.cls-1{opacity:0.2;}.cls-2{fill:#bc80bd;}.cls-3{fill:none;stroke:#603813;stroke-miterlimit:10;}.cls-4{fill:#c1b49a;}.cls-5{fill:#ffe8cc;}.cls-6{fill:#9a8479;}.cls-7{fill:#1a6d8c;}.cls-8{fill:#fff;}.cls-9{fill:#ffd1cf;}.cls-10{fill:#878787;}</style></defs><title>rat</title><g class="cls-1"><rect class="cls-2" width="1366" height="768"/></g><path class="cls-3" d="M374.39,562.23s-21.88,18.1-57-18.65S277.31,421,203.81,426.35,149,521.09,191.74,525.48s59.79-14.81,53.2-36.75-48.27-46.07-58.14-26.88-2.74,34.55-2.74,34.55" transform="translate(0 0)"/><path class="cls-4" d="M353.73,419.27s-23-11.26-36.35-20.81-39.7-6.26-29.1,20.81,63.26,39.85,63.26,39.85Z" transform="translate(0 0)"/><path class="cls-4" d="M483.08,419.27s23-11.26,36.35-20.81,39.7-6.26,29.1,20.81-63.26,39.85-63.26,39.85Z" transform="translate(0 0)"/><path class="cls-4" d="M393.22,271.71s-31.83-66.92,19.92-96.9,100,47.9,100,79.71c0,0-3.66,12.43-31.45,13.17s-53.39.73-54.48,1.09S393.22,271.71,393.22,271.71Z" transform="translate(0 0)"/><path class="cls-5" d="M407.49,262.2s-13.16-33.27,12.8-51.19c0,0,48.63-2.2,47.54,46.44Z" transform="translate(0 0)"/><path class="cls-6" d="M477,386.71s18.65,75.69,25.23,119-6,83.92-70.21,83.92-117.93-43.88-94.34-147.54,36.2-82.82,36.2-82.82,23.86,17.55,24.54,17.55,42.52,9.33,44.36,8.77S477,386.71,477,386.71Z" transform="translate(0 0)"/><path class="cls-4" d="M585.56,331.86s-136-145.9-205.14-56.49c0,0,8.23-56.49-55.4-74s-112.44,90.5-65.82,158c0,0,45.53,25.23,86.66-11,0,0,.55,45,89.4,46.62s141.51-52.11,141.51-52.11Z" transform="translate(0 0)"/><path class="cls-5" d="M346.42,316s8-7,9.51-27.43-21.94-47.9-44.61-44.61-39.12,46.07-30,72S327.77,332,346.42,316Z" transform="translate(0 0)"/><ellipse class="cls-7" cx="446.6" cy="302.38" rx="10.61" ry="16.87"/><ellipse class="cls-8" cx="444.67" cy="296.53" rx="3.68" ry="5.85"/><ellipse class="cls-7" cx="496.16" cy="292.37" rx="6.03" ry="12.89"/><ellipse class="cls-8" cx="494.17" cy="286.56" rx="1.99" ry="4.25"/><path class="cls-8" d="M467.84,348.86c-.2,0-40.51,10.42-48.47-14.81,0,0-14.26,37.84,39.77,39.49Z" transform="translate(0 0)"/><ellipse class="cls-9" cx="398.39" cy="321.85" rx="12.81" ry="7.04"/><ellipse class="cls-10" cx="581.42" cy="332.38" rx="19.9" ry="17.09"/><ellipse class="cls-4" cx="402.18" cy="585.21" rx="25.78" ry="18.52"/><path class="cls-4" d="M508.49,585.21c0,10.22-11.38,18.52-25.41,18.52s-25.41-8.3-25.41-18.52,11.38-18.53,25.41-18.53S508.49,575,508.49,585.21Z" transform="translate(0 0)"/><circle class="cls-5" cx="302.22" cy="411.62" r="9.56"/><circle class="cls-5" cx="533.46" cy="411.62" r="9.56"/></svg>