<svg xmlns="http://www.w3.org/2000/svg" viewBox="0 0 447.68 435.66"><defs><style>.cls-1{fill:#c1b49a;}.cls-2{fill:#ffe8cc;}.cls-3{fill:none;stroke:#603813;stroke-miterlimit:10;}.cls-4{fill:#9a8479;}.cls-5{fill:#1a6d8c;}.cls-6{fill:#fff;}.cls-7{fill:#ffd1cf;}.cls-8{fill:#878787;}</style></defs><title>rat</title><g id="Right_arm" data-name="Right arm"><path class="cls-1" d="M353.73,419.27s-23-11.26-36.35-20.81-39.7-6.26-29.1,20.81,63.26,39.85,63.26,39.85Z" transform="translate(-153.64 -168.07)"/><circle class="cls-2" cx="148.59" cy="243.56" r="9.56"/></g><g id="left_arm" data-name="left arm"><path class="cls-1" d="M483.08,419.27s23-11.26,36.35-20.81,39.7-6.26,29.1,20.81-63.26,39.85-63.26,39.85Z" transform="translate(-153.64 -168.07)"/><circle class="cls-2" cx="379.82" cy="243.56" r="9.56"/></g><g id="rat"><path class="cls-3" d="M374.39,562.23s-21.88,18.1-57-18.65S277.31,421,203.81,426.35,149,521.09,191.74,525.48s59.79-14.81,53.2-36.75-48.27-46.07-58.14-26.88-2.74,34.55-2.74,34.55" transform="translate(-153.64 -168.07)"/><path class="cls-1" d="M393.22,271.71s-31.83-66.92,19.92-96.9,100,47.9,100,79.71c0,0-3.66,12.43-31.45,13.17s-53.39.73-54.48,1.09S393.22,271.71,393.22,271.71Z" transform="translate(-153.64 -168.07)"/><path class="cls-2" d="M407.49,262.2s-13.16-33.27,12.8-51.19c0,0,48.63-2.2,47.54,46.44Z" transform="translate(-153.64 -168.07)"/><path class="cls-4" d="M477,386.71s18.65,75.69,25.23,119-6,83.92-70.21,83.92-117.93-43.88-94.34-147.54,36.2-82.82,36.2-82.82,23.86,17.55,24.54,17.55,42.52,9.33,44.36,8.77S477,386.71,477,386.71Z" transform="translate(-153.64 -168.07)"/><path class="cls-1" d="M585.56,331.86s-136-145.9-205.14-56.49c0,0,8.23-56.49-55.4-74s-112.44,90.5-65.82,158c0,0,45.53,25.23,86.66-11,0,0,.55,45,89.4,46.62s141.51-52.11,141.51-52.11Z" transform="translate(-153.64 -168.07)"/><path class="cls-2" d="M346.42,316s8-7,9.51-27.43-21.94-47.9-44.61-44.61-39.12,46.07-30,72S327.77,332,346.42,316Z" transform="translate(-153.64 -168.07)"/><ellipse class="cls-5" cx="292.97" cy="134.31" rx="10.61" ry="16.87"/><ellipse class="cls-6" cx="291.03" cy="128.46" rx="3.68" ry="5.85"/><ellipse class="cls-5" cx="342.52" cy="124.3" rx="6.03" ry="12.89"/><ellipse class="cls-6" cx="340.53" cy="118.49" rx="1.99" ry="4.25"/><path class="cls-6" d="M467.84,348.86c-.2,0-40.51,10.42-48.47-14.81,0,0-14.26,37.84,39.77,39.49Z" transform="translate(-153.64 -168.07)"/><ellipse class="cls-7" cx="244.75" cy="153.78" rx="12.81" ry="7.04"/><ellipse class="cls-8" cx="427.78" cy="164.31" rx="19.9" ry="17.09"/><ellipse class="cls-1" cx="248.55" cy="417.14" rx="25.78" ry="18.52"/><path class="cls-1" d="M508.49,585.21c0,10.22-11.38,18.52-25.41,18.52s-25.41-8.3-25.41-18.52,11.38-18.53,25.41-18.53S508.49,575,508.49,585.21Z" transform="translate(-153.64 -168.07)"/></g></svg>