<svg id="Layer_1" data-name="Layer 1" xmlns="http://www.w3.org/2000/svg" viewBox="0 0 449.54 471.49"><defs><style>.cls-1{fill:#f9b42b;}.cls-2{fill:#9f1d21;}.cls-3{fill:#dd1e38;}.cls-4{fill:#c4996d;}.cls-5{fill:#bc8057;}.cls-6{fill:#fff;}</style></defs><title>rooster</title><path class="cls-1" d="M257.17,403.35c1.32-6.07.43-41.58,15-34.35,7.07,3.52-1.24,22-3,28.16-1,3.43-14.44,46.32-22.07,42.29C239.75,435.56,255.74,409.93,257.17,403.35Z"/><path class="cls-1" d="M298.9,435.29c8.11,8.44,2.56,7.54-4.94,4.67-7.21-2.77-14-4.4-22.17-3.85,4.4,2,35.9,15.48,26.66,24.84-3.5,3.54-25.55-12.24-30.89-14.62,7.06,4.68,13.05,16.19,10,24.5a2.94,2.94,0,0,1-1.38.66c-8.67-6-11.61-19.13-19.62-26.4-4.25-3.85-13.26-7.3-7.95-14.28,4.6-6,18.27-3.27,24.74-3.47C282.87,427.05,291.62,427.71,298.9,435.29Z"/><path class="cls-1" d="M337,397.46c-1.47-6-17.86-37.55-1.63-37.43,7.89.06,8.52,20.27,9.68,26.61.64,3.5,7.35,48-1.27,47.68C335.47,434,338.59,404,337,397.46Z"/><path class="cls-1" d="M388.5,407.84c11,4,5.61,5.66-2.39,6.36-7.69.68-14.55,2.21-21.61,6.27,4.85-.1,39.06-1.85,34.86,10.62-1.59,4.72-28.33.21-34.17.42,8.4,1.11,18.84,8.82,19.74,17.62a2.94,2.94,0,0,1-.95,1.2c-10.41-1.55-18.83-12.1-29.22-15.11-5.51-1.6-15.11-.74-13.41-9.34,1.48-7.44,15-11,20.71-14C370.48,407.48,378.64,404.23,388.5,407.84Z"/><path class="cls-2" d="M5,227.72c7.26-.75,12.41-33.53,20-42.72,6.73-8.12,13.33-13.41,20.86-16.14,6.92-2.5,14.64-2.83,24-1.19,26.33,4.61,51.48,22.2,71.52,39.66,6.83,6,25,16,39.69,26.21-2.72-3.7-5.37-7.59-7.92-11.45-7.12-8.92-13.87-19.6-19.73-28.8-4.64-7.26-8.72-13.6-12-17.4C121.76,153,97.35,135,66.75,132.61,18.14,128.83-12.59,186,5,227.72Z"/><path class="cls-2" d="M25.35,281.5c7.26-.75,12.41-33.53,20-42.73,5.94-7.15,11.77-12.11,18.22-15,7.6-3.47,16.07-4.13,26.65-2.28,15.45,2.7,30.49,9.88,44.32,18.88a227.2,227.2,0,0,1,27.84,3.59,78.14,78.14,0,0,0,10,.92c-4-6.33-7.63-11.78-10.58-15.18l-.67-.76c-1.91-2.19-3.86-4.33-5.85-6.41-18.52-19.37-40.9-34-68.21-36.11a56.51,56.51,0,0,0-16.24,1.06l-1.07.23c-21.45,5-37.67,22.45-45,43.23h0C19,247.16,18.6,265.46,25.35,281.5Z"/><path class="cls-3" d="M24.75,230.9h0a58.21,58.21,0,0,0,3.66,12.46c6.74-.7,11.53-31.15,18.63-39.69,7.25-8.74,14.31-13.94,22.76-16l1.07-.23c5.27-1.11,11.1-1,17.84.15,22.35,3.91,43.77,17.88,61.5,32.64h0c1.68,1.4,3.32,2.81,4.93,4.21a64.2,64.2,0,0,0,6,4.46c-1.91-2.19-3.86-4.33-5.85-6.41,7.66,3.61,17.7,9.12,27.93,13.85-.7-.91-1.41-1.84-2.11-2.79-2.72-3.7-5.37-7.59-7.92-11.45-7.17-10.91-13.45-21.56-18-26.87l-1.69-1.93c-18-20.31-40.17-36.14-67.73-38.28a52.44,52.44,0,0,0-39.84,13.86C29.34,183.82,20.72,208.41,24.75,230.9Z"/><path class="cls-3" d="M65.59,322.16c5.31-3.9-5.67-31.76-3.93-42.4,2.94-18,10.21-27.71,27-34,14.1-5.27,30.15-6.4,45.95-5.43a227.2,227.2,0,0,1,27.84,3.59,78.14,78.14,0,0,0,10,.92c4.29.2,9.27.32,14.48.46-9.15-6-19-11.83-25.73-16.4-1.91-2.19-3.86-4.33-5.85-6.41-1.86-.88-3.55-1.64-5.1-2.26h0c-.74-.3-1.45-.56-2.11-.78-25.8-8.76-53-11.66-77.94.48a49.89,49.89,0,0,0-6.53,3.81C31,246,34.73,299.14,65.59,322.16Z"/><path class="cls-3" d="M170.58,246.49c-14.13-19.48-53.39-10.05-67.18,6C91.68,266.08,92.24,315,113.06,321c2.81-18.93-12-45.33,8.27-59.82,16.79-12,49.16,8.42,60.21-14.39-3.84-.4-8.69-1.07-12.55-.32Z"/><path class="cls-4" d="M385.15,303.65C364.87,350.5,319.8,378.77,268,370.91c-67.19-10.18-96.53-70.71-111.75-129.14-2-7.54-4.1-15.86-4.48-23.66.14,2.94,72.93,4,82.94-4.25,21.61-17.84,33-48.37,64.7-53.22,32.42-5,66.78,26.53,83.9,51C402.67,239.33,398,274,385.15,303.65Z"/><path class="cls-2" d="M393.19,116.11c-2.43,24.55,20.93,25.84,36.65,38.56,13.69,11.07,30.37,33,10.66,47-37.82,26.89-57-55.58-55.26-77.64Z"/><path class="cls-2" d="M398.39,116c-15.93,18.83,2.56,33.15,8.28,52.55,5,16.89,6.26,44.42-17.93,44.77-46.4.67-15.34-78.1-1.41-95.29Z"/><path class="cls-1" d="M443.62,111.19c-12.87.75-39,8.35-49.4-2.61s-6-34.2,6.31-41.55c12.14-7.24,25.21-12.58,39.14-6.73-7.11,7.12-15.41,15.5-23.4,22.48C426,91,438.91,98.39,443.62,111.19Z"/><path class="cls-2" d="M375.7,63.63c5.82-15.85,35.7-10.51,34.75-31.57-13.79-5.5-18.85,1.33-31.3,5.92-2.21-8.19-4.1-22.06-12.6-27.22-10.22-6.21-14.72,1.58-13,14.14C348.52,12.2,336.93-.76,321.64,0c-21.46,1.11-6.44,12.48-.16,23.61-10.51-3-25.94-8.61-35.18-.2-12,11,2.61,15.9,14.1,16.25C290.22,42.17,265.58,57,286.65,65.3c10,3.93,37.93-16.76,36.49,10.5C330.07,65,358.75,62,370.65,63.91c.77,3.86,3.14,3.23,5,6.08Z"/><path class="cls-5" d="M391.27,197.81c.49,9.56,2.17,24.06-9,28.49-10,3.94-15-4.53-16.89-14-14.29,14-24.87,15.79-30.05-5.12-12.82,8.74-28.9,23.09-27.14-5.15-11.81,9.05-40.16,14.44-25.91-7.9-14.37,15.47-44.3-17.29-25.65-23.31,2.91-.94,9.91,5.24,14.24,2.71s3.75-9.6,3.89-14.18c.32-10-1.48-21.51-1.36-32,.27-24.21,4.55-43.5,24.59-58.93a76.81,76.81,0,0,1,58.33-15.31c23.7,3.49,44,15.7,54.74,37.1,4,7.94,6.61,19.1,3.68,27.79-4.9,14.55-16.53,10.55-26.2,18.65C374,148.85,390.43,181.38,391.27,197.81Z"/><path class="cls-6" d="M371,73.41c16,14.72,7.56,41.19-10.31,50.45-20.57,10.66-45.19-12.6-41.48-33.63,2.81-15.9,16.46-26.82,32.69-24.87C360.23,66.36,366.53,69.31,371,73.41Z"/><path d="M343.57,111.15a16.22,16.22,0,0,1-17.3-25.85c9-11.36,28.79-5.84,28.54,9.3C354.68,102.2,351.36,108.92,343.57,111.15Z"/><path class="cls-6" d="M334.06,100.85c-3.46,4.12-10.83,1.27-10.35-4.25.38-4.42,4.81-7.71,8.45-5C335.2,93.82,336.76,97.65,334.06,100.85Z"/><path class="cls-5" d="M244,217.93c-11.31-9-25.76-22.75-39.95-24.78-6.14,11.11,10.35,26.7,17.59,32.9-6.17-2.51-27.31-20.14-33.16-18-13,4.81,9.55,23.84,13.7,29.08-6.18-4.24-13.33-9.71-20.37-10.72-.66,21.65,25.37,38.92,39.5,51.28a28.71,28.71,0,0,0-14.54-2.67c-2,28.08,60.68,50,83.07,45.59,23.31-4.6,34-35.85,28-56.67-3.57-12.28-9.74-16.35-21.1-20.15C277.12,237.27,260.95,231.43,244,217.93Z"/><path class="cls-4" d="M238.37,347.06c10.68-7.67,46.09-9.6,54,2.78,8,12.65-6,32-12.2,41.84-11.3,17.79-27.16,14.08-35.77-1.69C238.28,378.84,226.84,355.36,238.37,347.06Z"/><path class="cls-4" d="M307.58,327.94c10.68-7.67,46.09-9.6,54,2.78,8,12.65-6,32-12.2,41.84-11.3,17.79-27.16,14.08-35.77-1.69C307.49,359.72,296.05,336.23,307.58,327.94Z"/></svg>