<svg xmlns="http://www.w3.org/2000/svg" viewBox="0 0 441.16 366.99"><defs><style>.cls-1{fill:#ff7c00;}.cls-2{fill:#723938;}.cls-3{fill:#ce6209;}.cls-4{fill:#663131;}.cls-5{fill:#fe5b00;}.cls-6{fill:#ffe375;}.cls-7{fill:#efd06f;}.cls-8{fill:#9b5438;}.cls-9{fill:#c42222;}.cls-10{fill:#632f2f;}</style></defs><title>tiger</title><g id="Tail"><path class="cls-1" d="M91.8,164.88a11.68,11.68,0,0,0,3-23c-1.14-.31-72.5-20.15-71.44-63,.73-29.41,23.14-47.53,44.9-50.22,27.85-3.45,43.62,16.36,49.09,36.05a11.68,11.68,0,0,0,22.5-6.25C129.7,22,100.46,1.2,65.39,5.53,33.71,9.45,1.08,35.73,0,78.35c-1.52,61.33,85.07,85.14,88.76,86.13A11.75,11.75,0,0,0,91.8,164.88Z"/><path class="cls-2" d="M45.48,117.82c2.08,1.62,4.24,3.16,6.43,4.61l-12.11,8.4Z"/><path class="cls-2" d="M4.21,82.78l19.45-8.36c-.15,1.48-.26,3-.3,4.51a37.35,37.35,0,0,0,.29,5.68Z"/><path class="cls-2" d="M39,42.74,30.93,31.6l13.55,6.59A52,52,0,0,0,39,42.74Z"/><path class="cls-2" d="M84,29.37a41.84,41.84,0,0,0-5.9-.91L84,15.37Z"/><path class="cls-2" d="M105.71,42.56l13-3.07-8.83,8.56A50,50,0,0,0,105.71,42.56Z"/><path class="cls-2" d="M107.24,27.43l3-11.9a64.23,64.23,0,0,1,6.38,4.82Z"/><path class="cls-2" d="M55.7,7.44,57,21.85,46.36,10.61A75.33,75.33,0,0,1,55.7,7.44Z"/><path class="cls-2" d="M3.92,55.6a72.68,72.68,0,0,1,3.6-8.84L22,54.19Z"/><path class="cls-2" d="M17.56,97.95,8.19,110.53a65.58,65.58,0,0,1-3-6Z"/><path class="cls-2" d="M27.56,118.16l-4.82,10.74q-2-1.95-3.95-4Z"/><path class="cls-2" d="M55,136.58l-4.53,12.19q-2.74-1.5-5.52-3.17Z"/><path class="cls-2" d="M124.85,50.63l7.61-10.49a82,82,0,0,1,3.61,7.51Z"/></g><g id="Tiger"><path class="cls-3" d="M326.85,364.91l35.41-15.08A10.94,10.94,0,0,0,368,335.52l-31.34-73.6a10.94,10.94,0,0,0-14.31-5.76L287,271.23a11,11,0,0,0-5.76,14.32l31.34,73.6A11,11,0,0,0,326.85,364.91Z"/><path class="cls-4" d="M292.64,312.42a284.19,284.19,0,0,0,36.09,2s-11.73,6.55-30.55,11Z"/><path class="cls-4" d="M342.93,333.66s-10.61,13.12-30.31,25.67l-.09-.18-5.7-13.38A290.52,290.52,0,0,0,342.93,333.66Z"/><path class="cls-4" d="M362.38,322.27c-17.83,3.16-30.18,2.09-30.18,2.09a260.57,260.57,0,0,0,25.58-12.89Z"/><path class="cls-4" d="M348.69,290.11c-26.43,7.89-47.07,6.1-47.07,6.1,12.79-5.45,26.94-13.35,40.43-21.7Z"/><path class="cls-3" d="M143.24,364.91l35.41-15.08a10.94,10.94,0,0,0,5.76-14.31l-31.34-73.6a10.94,10.94,0,0,0-14.31-5.76l-35.41,15.07a10.94,10.94,0,0,0-5.77,14.32l31.34,73.6A10.94,10.94,0,0,0,143.24,364.91Z"/><path class="cls-4" d="M109,312.42a284.24,284.24,0,0,0,36.09,2s-11.73,6.55-30.55,11Z"/><path class="cls-4" d="M159.32,333.66S148.72,346.78,129,359.32c0-.06-.06-.12-.09-.18l-5.7-13.38A290.81,290.81,0,0,0,159.32,333.66Z"/><path class="cls-4" d="M178.77,322.27c-17.83,3.16-30.18,2.09-30.18,2.09a260.53,260.53,0,0,0,25.58-12.89Z"/><path class="cls-4" d="M165.08,290.11c-26.43,7.89-47.07,6.1-47.07,6.1,12.79-5.45,26.94-13.35,40.43-21.7Z"/><rect class="cls-1" x="47.34" y="130.83" width="303.56" height="174.63" rx="38.26" ry="38.26" transform="translate(398.24 436.29) rotate(-180)"/><path class="cls-2" d="M232.69,305.46H210.83c-4-37,6.84-64.78,6.84-64.78C220,260.59,226.26,284.51,232.69,305.46Z"/><path class="cls-2" d="M196.48,305.46H174.63c-4-37,6.84-64.78,6.84-64.78C183.8,260.59,190.05,284.51,196.48,305.46Z"/><path class="cls-5" d="M47.34,242V214.25a71.68,71.68,0,0,1,53.82-23.8c38.79,0,70.23,29.79,70.23,66.53a64.75,64.75,0,0,1-22.15,48.47H114.33C77.48,305.46,47.34,276.9,47.34,242Z"/><path class="cls-6" d="M112.8,279.85H278.42c37.93,0,69-27.73,69-61.63V173.14a55.22,55.22,0,0,1,3.51,19.32v51.37c0,33.89-31,61.63-69,61.63H116.31c-37.93,0-69-27.73-69-61.63v-6.29C56.47,262,82.41,279.85,112.8,279.85Z"/><path class="cls-7" d="M281.93,305.46h-9.78v-25.6h6.27a76.55,76.55,0,0,0,13.4-1.18h0L301.29,303A76,76,0,0,1,281.93,305.46Z"/><path class="cls-7" d="M47.34,243.83v-6.29c9.13,24.51,35.07,42.31,65.46,42.31h54.34a66.42,66.42,0,0,1-17.89,25.6H116.31C78.38,305.46,47.34,277.72,47.34,243.83Z"/><path class="cls-2" d="M223.56,130.83C226.79,156.43,233,196.06,243,224c0,0-38.68-35.09-43.43-93.17Z"/><path class="cls-2" d="M181.69,130.83c3.55,24.45,9.21,55.23,17.43,78.15,0,0-32-29.1-41.37-78.15Z"/><path class="cls-2" d="M112.54,130.83h11.62c3.58,23.75,9.07,52.49,16.85,74.18,0,0-29.85-27.1-40.31-73.08A64.84,64.84,0,0,1,112.54,130.83Z"/><path class="cls-2" d="M50.87,175a65.14,65.14,0,0,1,8.52-16.57c9.13,14.5,19.2,29,29.09,40.36C88.48,198.77,70.63,191.95,50.87,175Z"/><path class="cls-1" d="M235.71,261h49.44a6.67,6.67,0,0,1,6.67,6.67v92.64a6.66,6.66,0,0,1-6.66,6.66H235.71a6.67,6.67,0,0,1-6.67-6.67V267.68a6.66,6.66,0,0,1,6.66-6.66Z" transform="translate(520.87 628) rotate(-180)"/><path class="cls-2" d="M229,302.77a296.58,296.58,0,0,0,33.75,16.63s-13.9,1.49-33.75-1.91Z"/><path class="cls-2" d="M268.55,343.62s-15.51,8.24-39.49,12.22c0-.07,0-.14,0-.21V340.49A302.91,302.91,0,0,0,268.55,343.62Z"/><path class="cls-2" d="M291.82,340.64c-18.36-4.24-29.76-10.3-29.76-10.3a271.38,271.38,0,0,0,29.76-1.91Z"/><path class="cls-2" d="M291.82,304.26c-28.53-3.23-47.56-13.35-47.56-13.35,14.47,0,31.25-1.8,47.56-4.29Z"/><rect class="cls-1" x="37.34" y="261.01" width="60.58" height="105.97" rx="6.55" ry="6.55" transform="translate(135.27 628) rotate(-180)"/><path class="cls-2" d="M37.34,302.71A273.88,273.88,0,0,0,65.12,316s-11.17,1.2-27.78-1Z"/><path class="cls-2" d="M37.34,352.44V337.16a302,302,0,0,0,39.28,3.1S61.21,348.45,37.34,352.44Z"/><path class="cls-2" d="M97.92,336.8C80.73,332.6,70.14,327,70.14,327a265.09,265.09,0,0,0,27.78-1.69Z"/><path class="cls-8" d="M42.11,263.05a11.07,11.07,0,0,1,6.39-2H86.77a11.19,11.19,0,0,1,11.16,11.16v48A70.28,70.28,0,0,1,42.11,263.05Z"/><circle class="cls-1" cx="101.16" cy="241.11" r="70.23"/><path class="cls-2" d="M59.13,184.84c17.85,13.91,39.07,29.1,57.7,38.71,0,0-36.43.48-73.53-22.24A70.62,70.62,0,0,1,59.13,184.84Z"/><path class="cls-2" d="M30.93,241.11a70.69,70.69,0,0,1,1-11.66c15.73,8.19,32.43,16,47.24,20.9,0,0-20.51,3.47-47.86-2.05A71.21,71.21,0,0,1,30.93,241.11Z"/><path class="cls-2" d="M161.55,277C137,261.94,124,244.62,124,244.62c13,6.09,28.87,11.55,44.62,16.19A69.89,69.89,0,0,1,161.55,277Z"/><path class="cls-2" d="M120.39,308.65c-20.29-23.93-27.31-47-27.31-47,12.84,12.87,30.25,26.32,46.82,38A69.88,69.88,0,0,1,120.39,308.65Z"/><path class="cls-1" d="M429.18,60.1,433,21.72A14.18,14.18,0,0,0,412.69,7.57l-36,17.6a14.18,14.18,0,0,0-1.46,24.65l32.2,20.77A14.18,14.18,0,0,0,429.18,60.1Z"/><path class="cls-5" d="M412.69,7.57a14.16,14.16,0,0,1,20.36,13,14.18,14.18,0,0,0-18.81-6.21l-36,17.6a14,14,0,0,0-7.93,12.45,14.18,14.18,0,0,1,6.37-19.26Z"/><path class="cls-6" d="M422.77,54.69l2.33-23.34a8.62,8.62,0,0,0-12.37-8.61L390.82,33.44a8.62,8.62,0,0,0-.89,15l19.59,12.64A8.62,8.62,0,0,0,422.77,54.69Z"/><path class="cls-7" d="M418,57.41l2.33-23.34A8.62,8.62,0,0,0,408,25.46l-19.28,9.41a8.74,8.74,0,0,1,2.09-1.43l21.92-10.71a8.62,8.62,0,0,1,12.37,8.61l-2.33,23.34a8.6,8.6,0,0,1-6.87,7.6A8.52,8.52,0,0,0,418,57.41Z"/><ellipse class="cls-1" cx="337.13" cy="110.96" rx="104.03" ry="88.49"/><path class="cls-5" d="M314.46,24.61c-40.63,12-69.79,44.9-69.79,83.56,0,48.87,46.57,88.49,104,88.49a121.88,121.88,0,0,0,22.67-2.13,120.45,120.45,0,0,1-34.24,4.93c-57.45,0-104-39.62-104-88.49C233.1,68.72,267.91,33.41,314.46,24.61Z"/><path class="cls-6" d="M337.13,139.89c47.21,0,87.06-22.78,99.77-54A76.34,76.34,0,0,1,441.16,111c0,48.87-46.58,88.49-104,88.49s-104-39.62-104-88.49a76.25,76.25,0,0,1,4.26-25.07C250.07,117.1,289.92,139.89,337.13,139.89Z"/><path class="cls-7" d="M237.36,85.9a65.12,65.12,0,0,0,7.79,13.84,76.4,76.4,0,0,0-.48,8.43c0,48.87,46.57,88.49,104,88.49a121.88,121.88,0,0,0,22.67-2.13,120.45,120.45,0,0,1-34.24,4.93c-57.45,0-104-39.62-104-88.49A76.25,76.25,0,0,1,237.36,85.9Z"/><ellipse class="cls-2" cx="405.28" cy="90.53" rx="10.2" ry="12.81"/><ellipse class="cls-2" cx="328.54" cy="90.53" rx="10.2" ry="12.81"/><path class="cls-2" d="M337.13,22.48a121.6,121.6,0,0,1,25.26,2.64c7.21,13.8,15.64,36.27,11.43,60.78,0,0-10.89-38.47-37.27-63.41Z"/><path class="cls-2" d="M322.6,23.35c8.6,10.28,19.5,26.83,21.91,39.94,0,0-24-24.34-40.61-36.18A118.77,118.77,0,0,1,322.6,23.35Z"/><path class="cls-2" d="M384.51,32.19a109.18,109.18,0,0,1,11.83,6c-1.84,10.6-5,21.8-9.92,29.26C386.42,67.48,386.13,49.65,384.51,32.19Z"/><path class="cls-1" d="M307.73,30.41,269.79,3.23A17.16,17.16,0,0,0,242.68,16L239.4,64.43a17.16,17.16,0,0,0,25,16.41L305.6,59.6A17.16,17.16,0,0,0,307.73,30.41Z"/><path class="cls-5" d="M242.68,16a17.13,17.13,0,0,1,25.95-13.5,17.15,17.15,0,0,0-17.87,16l-3.28,48.41a17,17,0,0,0,8.27,15.83,17.16,17.16,0,0,1-16.35-18.3Z"/><path class="cls-6" d="M298.19,33.87,275.11,17.34a10.44,10.44,0,0,0-16.49,7.78l-2,29.45a10.44,10.44,0,0,0,15.19,10l25.07-12.92A10.44,10.44,0,0,0,298.19,33.87Z"/><path class="cls-7" d="M298.19,40.48,275.11,23.94a10.44,10.44,0,0,0-16.49,7.78l-1.76,25.91a10.56,10.56,0,0,1-.24-3.06l2-29.45a10.44,10.44,0,0,1,16.49-7.78l23.08,16.53A10.41,10.41,0,0,1,302,45.67,10.3,10.3,0,0,0,298.19,40.48Z"/><path class="cls-2" d="M243,85.9s17.27,28.44,50.5,38.41C293.53,124.31,253,133.78,243,85.9Z"/><path class="cls-2" d="M239.36,109.27s31.31,39.21,64.54,49.18C303.91,158.45,249.93,166.22,239.36,109.27Z"/><path class="cls-2" d="M418.1,111a87.8,87.8,0,0,0,18.48-26,76.88,76.88,0,0,1,3.19,11.63A44.39,44.39,0,0,1,418.1,111Z"/><path class="cls-2" d="M441,115a76.29,76.29,0,0,1-3.21,18.23A66.48,66.48,0,0,1,410,142.68C421.8,136.28,432.43,125.65,441,115Z"/><ellipse class="cls-9" cx="365.33" cy="140.46" rx="30.49" ry="27.63"/><ellipse class="cls-6" cx="394.51" cy="138.59" rx="29.18" ry="27.63"/><path class="cls-7" d="M376.33,117a26.54,26.54,0,0,0-6,16.7c0,15.26,13.07,27.63,29.18,27.63a30.08,30.08,0,0,0,18.18-6,29.68,29.68,0,0,1-23.21,10.93c-16.12,0-29.18-12.37-29.18-27.63A27.05,27.05,0,0,1,376.33,117Z"/><ellipse class="cls-6" cx="335.53" cy="138.59" rx="33.38" ry="27.63"/><path class="cls-7" d="M356.33,117a24.58,24.58,0,0,1,6.83,16.7c0,15.26-14.94,27.63-33.38,27.63a37.76,37.76,0,0,1-20.79-6c6.1,6.63,15.71,10.93,26.55,10.93,18.44,0,33.38-12.37,33.38-27.63C368.92,129.85,364,122.06,356.33,117Z"/><path class="cls-10" d="M377.39,112H357a5.86,5.86,0,0,0-4.59,9.5l10.2,12.84a5.85,5.85,0,0,0,9.17,0L382,121.53A5.85,5.85,0,0,0,377.39,112Z"/><path class="cls-2" d="M380,109.27H359.57a5.85,5.85,0,0,0-4.58,9.5l10.2,12.84a5.85,5.85,0,0,0,9.17,0l10.2-12.84A5.85,5.85,0,0,0,380,109.27Z"/></g></svg>