<svg id="Layer_1" data-name="Layer 1" xmlns="http://www.w3.org/2000/svg" viewBox="0 0 1366 768"><defs><style>.cls-1{opacity:0.3;}.cls-2{fill:#8dd2c7;}.cls-3{fill:#ff7c00;}.cls-4{fill:#723938;}.cls-5{fill:#ce6209;}.cls-6{fill:#663131;}.cls-7{fill:#fe5b00;}.cls-8{fill:#ffe375;}.cls-9{fill:#efd06f;}.cls-10{fill:#9b5438;}.cls-11{fill:#c42222;}.cls-12{fill:#632f2f;}</style></defs><title>tiger</title><g class="cls-1"><rect class="cls-2" width="1366" height="768"/></g><path class="cls-3" d="M284,371.29a11.68,11.68,0,0,0,3-23c-1.14-.31-72.5-20.15-71.44-63,.73-29.41,23.14-47.53,44.9-50.22,27.85-3.45,43.62,16.36,49.09,36.05a11.68,11.68,0,0,0,22.5-6.25c-10.15-36.53-39.39-57.31-74.46-53-31.69,3.92-64.32,30.19-65.38,72.82-1.52,61.33,85.07,85.14,88.76,86.13A11.75,11.75,0,0,0,284,371.29Z" transform="translate(0 0)"/><path class="cls-4" d="M237.65,324.23c2.08,1.62,4.24,3.16,6.43,4.61L232,337.24Z" transform="translate(0 0)"/><path class="cls-4" d="M196.39,289.19l19.45-8.36c-.15,1.48-.26,3-.3,4.51a37.35,37.35,0,0,0,.29,5.68Z" transform="translate(0 0)"/><path class="cls-4" d="M231.19,249.15,223.1,238l13.55,6.59A52,52,0,0,0,231.19,249.15Z" transform="translate(0 0)"/><path class="cls-4" d="M276.2,235.78a41.84,41.84,0,0,0-5.9-.91l5.9-13.08Z" transform="translate(0 0)"/><path class="cls-4" d="M297.89,249l13-3.07L302,254.47A50,50,0,0,0,297.89,249Z" transform="translate(0 0)"/><path class="cls-4" d="M299.41,233.85l3-11.9a64.23,64.23,0,0,1,6.38,4.82Z" transform="translate(0 0)"/><path class="cls-4" d="M247.87,213.85l1.28,14.41L238.53,217A75.33,75.33,0,0,1,247.87,213.85Z" transform="translate(0 0)"/><path class="cls-4" d="M196.09,262a72.68,72.68,0,0,1,3.6-8.84l14.49,7.43Z" transform="translate(0 0)"/><path class="cls-4" d="M209.73,304.36l-9.36,12.59a65.58,65.58,0,0,1-3-6Z" transform="translate(0 0)"/><path class="cls-4" d="M219.74,324.57l-4.82,10.74q-2-1.95-3.95-4Z" transform="translate(0 0)"/><path class="cls-4" d="M247.21,343l-4.53,12.19q-2.74-1.5-5.52-3.17Z" transform="translate(0 0)"/><path class="cls-4" d="M317,257l7.61-10.49a82,82,0,0,1,3.61,7.51Z" transform="translate(0 0)"/><path class="cls-5" d="M519,571.32l35.41-15.08a10.94,10.94,0,0,0,5.77-14.31l-31.34-73.6a10.94,10.94,0,0,0-14.31-5.76l-35.41,15.07A11,11,0,0,0,473.37,492l31.34,73.6A11,11,0,0,0,519,571.32Z" transform="translate(0 0)"/><path class="cls-6" d="M484.81,518.83a284.19,284.19,0,0,0,36.09,2s-11.73,6.55-30.55,11Z" transform="translate(0 0)"/><path class="cls-6" d="M535.1,540.07s-10.61,13.12-30.31,25.67l-.09-.18L499,552.18A290.52,290.52,0,0,0,535.1,540.07Z" transform="translate(0 0)"/><path class="cls-6" d="M554.55,528.68c-17.83,3.16-30.18,2.09-30.18,2.09A260.57,260.57,0,0,0,550,517.89Z" transform="translate(0 0)"/><path class="cls-6" d="M540.86,496.52c-26.43,7.89-47.07,6.1-47.07,6.1,12.79-5.45,26.94-13.35,40.43-21.7Z" transform="translate(0 0)"/><path class="cls-5" d="M335.42,571.32l35.41-15.08a10.94,10.94,0,0,0,5.76-14.31l-31.34-73.6a10.94,10.94,0,0,0-14.31-5.76l-35.41,15.07A10.94,10.94,0,0,0,289.76,492l31.34,73.6A10.94,10.94,0,0,0,335.42,571.32Z" transform="translate(0 0)"/><path class="cls-6" d="M301.21,518.83a284.24,284.24,0,0,0,36.09,2s-11.73,6.55-30.55,11Z" transform="translate(0 0)"/><path class="cls-6" d="M351.5,540.07s-10.61,13.12-30.31,25.67c0-.06-.06-.12-.09-.18l-5.7-13.38A290.81,290.81,0,0,0,351.5,540.07Z" transform="translate(0 0)"/><path class="cls-6" d="M370.94,528.68c-17.83,3.16-30.18,2.09-30.18,2.09a260.53,260.53,0,0,0,25.58-12.89Z" transform="translate(0 0)"/><path class="cls-6" d="M357.25,496.52c-26.43,7.89-47.07,6.1-47.07,6.1,12.79-5.45,26.94-13.35,40.43-21.7Z" transform="translate(0 0)"/><rect class="cls-3" x="239.51" y="337.24" width="303.56" height="174.63" rx="38.26" ry="38.26" transform="translate(782.59 849.12) rotate(-180)"/><path class="cls-4" d="M424.86,511.87H403c-4-37,6.84-64.78,6.84-64.78C412.17,467,418.43,490.93,424.86,511.87Z" transform="translate(0 0)"/><path class="cls-4" d="M388.66,511.87H366.8c-4-37,6.84-64.78,6.84-64.78C376,467,382.23,490.93,388.66,511.87Z" transform="translate(0 0)"/><path class="cls-7" d="M239.51,448.42V420.67a71.68,71.68,0,0,1,53.82-23.8c38.79,0,70.23,29.79,70.23,66.53a64.75,64.75,0,0,1-22.15,48.47H306.5C269.65,511.87,239.51,483.32,239.51,448.42Z" transform="translate(0 0)"/><path class="cls-8" d="M305,486.27H470.59c37.93,0,69-27.73,69-61.63V379.56a55.22,55.22,0,0,1,3.51,19.32v51.37c0,33.89-31,61.63-69,61.63H308.48c-37.93,0-69-27.73-69-61.63V444C248.64,468.46,274.58,486.27,305,486.27Z" transform="translate(0 0)"/><path class="cls-9" d="M474.1,511.87h-9.78v-25.6h6.27a76.55,76.55,0,0,0,13.4-1.18h0l9.47,24.29A76,76,0,0,1,474.1,511.87Z" transform="translate(0 0)"/><path class="cls-9" d="M239.51,450.25V444c9.13,24.51,35.07,42.31,65.46,42.31h54.34a66.42,66.42,0,0,1-17.89,25.6H308.48C270.55,511.87,239.51,484.14,239.51,450.25Z" transform="translate(0 0)"/><path class="cls-4" d="M415.73,337.24c3.24,25.6,9.45,65.23,19.47,93.17,0,0-38.68-35.09-43.43-93.17Z" transform="translate(0 0)"/><path class="cls-4" d="M373.86,337.24c3.55,24.45,9.21,55.23,17.43,78.15,0,0-32-29.1-41.37-78.15Z" transform="translate(0 0)"/><path class="cls-4" d="M304.71,337.24h11.62c3.58,23.75,9.07,52.49,16.85,74.18,0,0-29.85-27.1-40.31-73.08A64.84,64.84,0,0,1,304.71,337.24Z" transform="translate(0 0)"/><path class="cls-4" d="M243,381.4a65.14,65.14,0,0,1,8.52-16.57c9.13,14.5,19.2,29,29.09,40.36C280.65,405.18,262.8,398.36,243,381.4Z" transform="translate(0 0)"/><path class="cls-3" d="M427.89,467.43h49.44a6.67,6.67,0,0,1,6.67,6.67v92.64a6.66,6.66,0,0,1-6.66,6.66H427.89a6.67,6.67,0,0,1-6.67-6.67V474.09a6.66,6.66,0,0,1,6.66-6.66Z" transform="translate(905.21 1040.83) rotate(-180)"/><path class="cls-4" d="M421.22,509.19A296.58,296.58,0,0,0,455,525.82s-13.9,1.49-33.75-1.91Z" transform="translate(0 0)"/><path class="cls-4" d="M460.72,550s-15.51,8.24-39.49,12.22c0-.07,0-.14,0-.21V546.9A302.91,302.91,0,0,0,460.72,550Z" transform="translate(0 0)"/><path class="cls-4" d="M484,547.05c-18.36-4.24-29.76-10.3-29.76-10.3A271.38,271.38,0,0,0,484,534.84Z" transform="translate(0 0)"/><path class="cls-4" d="M484,510.68c-28.53-3.23-47.56-13.35-47.56-13.35,14.47,0,31.25-1.8,47.56-4.29Z" transform="translate(0 0)"/><rect class="cls-3" x="229.51" y="467.43" width="60.58" height="105.97" rx="6.55" ry="6.55" transform="translate(519.61 1040.83) rotate(-180)"/><path class="cls-4" d="M229.51,509.12a273.88,273.88,0,0,0,27.78,13.33s-11.17,1.2-27.78-1Z" transform="translate(0 0)"/><path class="cls-4" d="M229.51,558.86V543.57a302,302,0,0,0,39.28,3.1S253.38,554.86,229.51,558.86Z" transform="translate(0 0)"/><path class="cls-4" d="M290.1,543.22c-17.19-4.2-27.78-9.83-27.78-9.83a265.09,265.09,0,0,0,27.78-1.69Z" transform="translate(0 0)"/><path class="cls-10" d="M234.28,469.47a11.07,11.07,0,0,1,6.39-2h38.26a11.19,11.19,0,0,1,11.16,11.16v48A70.28,70.28,0,0,1,234.28,469.47Z" transform="translate(0 0)"/><circle class="cls-3" cx="293.33" cy="447.52" r="70.23"/><path class="cls-4" d="M251.3,391.25c17.85,13.91,39.07,29.1,57.7,38.71,0,0-36.43.48-73.53-22.24A70.62,70.62,0,0,1,251.3,391.25Z" transform="translate(0 0)"/><path class="cls-4" d="M223.1,447.52a70.69,70.69,0,0,1,1-11.66c15.73,8.19,32.43,16,47.24,20.9,0,0-20.51,3.47-47.86-2.05A71.21,71.21,0,0,1,223.1,447.52Z" transform="translate(0 0)"/><path class="cls-4" d="M353.72,483.39c-24.57-15-37.59-32.35-37.59-32.35,13,6.09,28.87,11.55,44.62,16.19A69.89,69.89,0,0,1,353.72,483.39Z" transform="translate(0 0)"/><path class="cls-4" d="M312.56,515.07c-20.29-23.93-27.31-47-27.31-47,12.84,12.87,30.25,26.32,46.82,38A69.88,69.88,0,0,1,312.56,515.07Z" transform="translate(0 0)"/><path class="cls-3" d="M621.36,266.51l3.83-38.37A14.18,14.18,0,0,0,604.86,214l-36,17.6a14.18,14.18,0,0,0-1.46,24.65L599.56,277A14.18,14.18,0,0,0,621.36,266.51Z" transform="translate(0 0)"/><path class="cls-7" d="M604.86,214a14.16,14.16,0,0,1,20.36,13,14.18,14.18,0,0,0-18.81-6.21l-36,17.6a14,14,0,0,0-7.93,12.45,14.18,14.18,0,0,1,6.37-19.26Z" transform="translate(0 0)"/><path class="cls-8" d="M614.94,261.1l2.33-23.34a8.62,8.62,0,0,0-12.37-8.61L583,239.86a8.62,8.62,0,0,0-.89,15l19.59,12.64A8.62,8.62,0,0,0,614.94,261.1Z" transform="translate(0 0)"/><path class="cls-9" d="M610.21,263.83l2.33-23.34a8.62,8.62,0,0,0-12.37-8.61l-19.28,9.41a8.74,8.74,0,0,1,2.09-1.43l21.92-10.71a8.62,8.62,0,0,1,12.37,8.61l-2.33,23.34a8.6,8.6,0,0,1-6.87,7.6A8.52,8.52,0,0,0,610.21,263.83Z" transform="translate(0 0)"/><ellipse class="cls-3" cx="529.3" cy="317.38" rx="104.03" ry="88.49"/><path class="cls-7" d="M506.63,231c-40.63,12-69.79,44.9-69.79,83.56,0,48.87,46.57,88.49,104,88.49a121.88,121.88,0,0,0,22.67-2.13,120.45,120.45,0,0,1-34.24,4.93c-57.45,0-104-39.62-104-88.49C425.27,275.13,460.08,239.83,506.63,231Z" transform="translate(0 0)"/><path class="cls-8" d="M529.3,346.3c47.21,0,87.06-22.78,99.77-54a76.34,76.34,0,0,1,4.26,25.07c0,48.87-46.58,88.49-104,88.49s-104-39.62-104-88.49a76.25,76.25,0,0,1,4.26-25.07C442.24,323.52,482.09,346.3,529.3,346.3Z" transform="translate(0 0)"/><path class="cls-9" d="M429.53,292.31a65.12,65.12,0,0,0,7.79,13.84,76.4,76.4,0,0,0-.48,8.43c0,48.87,46.57,88.49,104,88.49a121.88,121.88,0,0,0,22.67-2.13,120.45,120.45,0,0,1-34.24,4.93c-57.45,0-104-39.62-104-88.49A76.25,76.25,0,0,1,429.53,292.31Z" transform="translate(0 0)"/><ellipse class="cls-4" cx="597.45" cy="296.95" rx="10.2" ry="12.81"/><ellipse class="cls-4" cx="520.71" cy="296.95" rx="10.2" ry="12.81"/><path class="cls-4" d="M529.3,228.89a121.6,121.6,0,0,1,25.26,2.64c7.21,13.8,15.64,36.27,11.43,60.78,0,0-10.89-38.47-37.27-63.41Z" transform="translate(0 0)"/><path class="cls-4" d="M514.77,229.77c8.6,10.28,19.5,26.83,21.91,39.94,0,0-24-24.34-40.61-36.18A118.77,118.77,0,0,1,514.77,229.77Z" transform="translate(0 0)"/><path class="cls-4" d="M576.68,238.61a109.18,109.18,0,0,1,11.83,6c-1.84,10.6-5,21.8-9.92,29.26C578.6,273.9,578.3,256.07,576.68,238.61Z" transform="translate(0 0)"/><path class="cls-3" d="M499.9,236.82,462,209.65a17.16,17.16,0,0,0-27.11,12.79l-3.28,48.41a17.16,17.16,0,0,0,25,16.41L497.77,266A17.16,17.16,0,0,0,499.9,236.82Z" transform="translate(0 0)"/><path class="cls-7" d="M434.86,222.44a17.13,17.13,0,0,1,25.95-13.5,17.15,17.15,0,0,0-17.87,16l-3.28,48.41a17,17,0,0,0,8.27,15.83,17.16,17.16,0,0,1-16.35-18.3Z" transform="translate(0 0)"/><path class="cls-8" d="M490.36,240.29l-23.08-16.53a10.44,10.44,0,0,0-16.49,7.78l-2,29.45A10.44,10.44,0,0,0,464,271L489.06,258A10.44,10.44,0,0,0,490.36,240.29Z" transform="translate(0 0)"/><path class="cls-9" d="M490.36,246.89l-23.08-16.53a10.44,10.44,0,0,0-16.49,7.78L449,264a10.56,10.56,0,0,1-.24-3.06l2-29.45a10.44,10.44,0,0,1,16.49-7.78l23.08,16.53a10.41,10.41,0,0,1,3.82,11.8A10.3,10.3,0,0,0,490.36,246.89Z" transform="translate(0 0)"/><path class="cls-4" d="M435.2,292.31s17.27,28.44,50.5,38.41C485.7,330.72,445.13,340.2,435.2,292.31Z" transform="translate(0 0)"/><path class="cls-4" d="M431.53,315.68s31.31,39.21,64.54,49.18C496.08,364.86,442.11,372.63,431.53,315.68Z" transform="translate(0 0)"/><path class="cls-4" d="M610.27,317.38a87.8,87.8,0,0,0,18.48-26A76.88,76.88,0,0,1,631.94,303,44.39,44.39,0,0,1,610.27,317.38Z" transform="translate(0 0)"/><path class="cls-4" d="M633.21,321.44A76.29,76.29,0,0,1,630,339.67a66.48,66.48,0,0,1-27.85,9.42C614,342.69,624.6,332.06,633.21,321.44Z" transform="translate(0 0)"/><ellipse class="cls-11" cx="557.5" cy="346.88" rx="30.49" ry="27.63"/><ellipse class="cls-8" cx="586.68" cy="345" rx="29.18" ry="27.63"/><path class="cls-9" d="M568.51,323.42a26.54,26.54,0,0,0-6,16.7c0,15.26,13.07,27.63,29.18,27.63a30.08,30.08,0,0,0,18.18-6,29.68,29.68,0,0,1-23.21,10.93c-16.12,0-29.18-12.37-29.18-27.63A27.05,27.05,0,0,1,568.51,323.42Z" transform="translate(0 0)"/><ellipse class="cls-8" cx="527.71" cy="345" rx="33.38" ry="27.63"/><path class="cls-9" d="M548.5,323.42a24.58,24.58,0,0,1,6.83,16.7c0,15.26-14.94,27.63-33.38,27.63a37.76,37.76,0,0,1-20.79-6c6.1,6.63,15.71,10.93,26.55,10.93,18.44,0,33.38-12.37,33.38-27.63C561.09,336.26,556.16,328.48,548.5,323.42Z" transform="translate(0 0)"/><path class="cls-12" d="M569.56,318.45h-20.4a5.86,5.86,0,0,0-4.59,9.5l10.2,12.84a5.85,5.85,0,0,0,9.17,0l10.2-12.84A5.85,5.85,0,0,0,569.56,318.45Z" transform="translate(0 0)"/><path class="cls-4" d="M572.15,315.68H551.75a5.85,5.85,0,0,0-4.58,9.5L557.36,338a5.85,5.85,0,0,0,9.17,0l10.2-12.84A5.85,5.85,0,0,0,572.15,315.68Z" transform="translate(0 0)"/></svg>