<svg id="Layer_1" data-name="Layer 1" xmlns="http://www.w3.org/2000/svg" viewBox="0 0 126.01 34.65"><defs><style>.cls-1{fill:#231f20;}.cls-2{fill:#594a42;}</style></defs><title>waru-logo</title><path class="cls-1" d="M34,33q.6.05,1.77.08l2.45,0,2.42,0h3.4l2.35,0,2.48,0Q50.1,33.1,51,33q0,1.05-.08,2A9.8,9.8,0,0,1,50.6,37a5.79,5.79,0,0,0-1.8.47,1.68,1.68,0,0,0-.87,1,3.35,3.35,0,0,0,0,1.7,17.84,17.84,0,0,0,.8,2.72q1,2.85,2,6.15l1.2,3.8,6.8-19.55a11,11,0,0,1,2.08-.33Q62,32.8,63,32.8,64.3,36.05,65.48,39t2.3,5.75q1.13,2.85,2.27,5.8.55,1.4,1.1,2.9s8-20.21,8.45-20.23l1.45,0q.7,0,1.2-.08,0,1,0,2A6.53,6.53,0,0,1,81.8,37a4.15,4.15,0,0,0-1.22.67,4.66,4.66,0,0,0-1,1.2,11,11,0,0,0-.93,2q-.45,1.28-1,3.23L71.2,67q-.4.1-1.05.2t-1.4.15l-1.52.08-1.43,0q-1.15-3.1-2.22-5.87t-2.18-5.5q-1.1-2.72-2.25-5.53-.6-1.5-1.25-3L51.15,67.1q-.5.1-1.2.18l-1.43.13c-.48,0-1,0-1.42,0H46q-2.1-6.75-4.08-12.9T38.3,43.65q-.75-2.2-1.22-3.48a12.8,12.8,0,0,0-.87-1.95,2.12,2.12,0,0,0-.83-.87,3,3,0,0,0-1-.25,8.72,8.72,0,0,1-.3-1.93Q34,34.15,34,33Z" transform="translate(-34 -32.8)"/><path class="cls-1" d="M79.68,33.2a8.74,8.74,0,0,1,1.82-.28l2,0,11.1,24.35q.9,1.95,1.5,3.1a12.7,12.7,0,0,0,1.08,1.78,3,3,0,0,0,.9.85,2.54,2.54,0,0,0,1,.28,8.84,8.84,0,0,1,.3,1.67q.1,1,.1,2.23-.75-.05-1.85-.08l-2.23,0-2.17,0h-3.4l-2.48,0-2.58,0q-1.25,0-1.95.08a20.8,20.8,0,0,1,.1-2.28,11.19,11.19,0,0,1,.3-1.62q1.65-.4,2-1.25a3.62,3.62,0,0,0-.43-2.55l-.35-.75q-2.9,0-5.9.15-2.7.1-5.5.35s-7.14,3.86-6.82,3.67a3.45,3.45,0,0,0,.92-.83A8.44,8.44,0,0,0,68,60.58q.47-.92,1.08-2.37ZM74.43,55.45h8.5L81.08,51.2a46.72,46.72,0,0,1-2.15-5.65q-.2-.6-.4-1.25l-.4,1.3q-.8,2.6-2,5.6Z" transform="translate(-34 -32.8)"/><path class="cls-1" d="M105.53,33.2q1.45,0,4.27-.12t6.08-.12a18.52,18.52,0,0,1,5.6.75,11.36,11.36,0,0,1,3.88,2,7.84,7.84,0,0,1,2.25,3,9.28,9.28,0,0,1,.72,3.63,13.07,13.07,0,0,1-.7,4.48,9.79,9.79,0,0,1-1.93,3.27,8.71,8.71,0,0,1-2.87,2.1,7.59,7.59,0,0,1-1.45.55,5.09,5.09,0,0,1,.95.45,4.71,4.71,0,0,1,1.48,1.2,12.86,12.86,0,0,1,1.38,2.07q.7,1.28,1.7,3.28a14.8,14.8,0,0,0,.9,1.6,4.46,4.46,0,0,0,.85,1,3.05,3.05,0,0,0,.95.55,4.74,4.74,0,0,0,1.25.22,14.18,14.18,0,0,1-.55,4q-4,0-7.05.1a41.83,41.83,0,0,0-4.4.3l-1.27-3.75q-.68-2-1.48-3.9-.55-1.4-1-2.37a10.4,10.4,0,0,0-.9-1.67,6.7,6.7,0,0,0-1-1.2q-.3-.25-.65-.5h-1.9v3.1q0,2.05.13,3.25a5.71,5.71,0,0,0,.42,1.82,1.48,1.48,0,0,0,.75.8,4,4,0,0,0,1.15.22,6.52,6.52,0,0,1,.28,1.67q.08,1.13.08,2.23-.7-.05-1.83-.08l-2.37,0-2.45,0h-2.1l-4,0q-2,0-3.73.13A21.36,21.36,0,0,1,97,64.9a9.85,9.85,0,0,1,.3-1.65A5.4,5.4,0,0,0,99,63a2,2,0,0,0,1-.85,4,4,0,0,0,.5-1.65,25.11,25.11,0,0,0,.13-2.8V42.35a23.18,23.18,0,0,0-.12-2.7,3.74,3.74,0,0,0-.5-1.57,2.09,2.09,0,0,0-1-.83,8,8,0,0,0-1.7-.4,6.45,6.45,0,0,1-.18-.9c0-.37-.08-.74-.1-1.12s0-.74-.05-1.08,0-.58,0-.75q1.5.1,3.75.15T105.53,33.2Zm7.2,3.65a6.32,6.32,0,0,0-2.1.35V49.5a4.12,4.12,0,0,0,.75.1,6,6,0,0,0,.75,0,6.21,6.21,0,0,0,2.1-.37,5.26,5.26,0,0,0,1.85-1.12,5.66,5.66,0,0,0,1.3-1.9,6.75,6.75,0,0,0,.5-2.7,7.72,7.72,0,0,0-1.4-5A4.58,4.58,0,0,0,112.73,36.85Z" transform="translate(-34 -32.8)"/><path class="cls-2" d="M156.47,53.15a33.35,33.35,0,0,1-.62,7.13,9,9,0,0,1-2.37,4.52,8.74,8.74,0,0,1-3.75,2,19.45,19.45,0,0,1-5.1.6,24.16,24.16,0,0,1-6.3-.7,9.31,9.31,0,0,1-4.1-2.2A8.31,8.31,0,0,1,132,60.7a21.4,21.4,0,0,1-.65-5.65V42.7a20.6,20.6,0,0,0-.15-2.8,4.27,4.27,0,0,0-.52-1.65,2.21,2.21,0,0,0-1-.87,6.54,6.54,0,0,0-1.62-.42,17.06,17.06,0,0,1-.4-3.9q1,.1,2.88.13l3.92,0H137l3.1,0,2.88,0q1.32,0,1.92-.08,0,1.2,0,2.13a10.25,10.25,0,0,1-.25,1.78,6.49,6.49,0,0,0-1.62.42,2.07,2.07,0,0,0-1,.88,4.36,4.36,0,0,0-.47,1.67,24.79,24.79,0,0,0-.12,2.78V54.2q0,4.7,1.38,7A4.61,4.61,0,0,0,147,63.4a5.91,5.91,0,0,0,2.33-.5,4.56,4.56,0,0,0,2-1.65,7.83,7.83,0,0,0,1-2.85,32.28,32.28,0,0,0,.38-5.75v-9a22.44,22.44,0,0,0-.17-3.07,6.56,6.56,0,0,0-.55-2,2.45,2.45,0,0,0-1-1.1,6,6,0,0,0-1.55-.55,26.24,26.24,0,0,1-.3-3.9c.33,0,.74.06,1.22.08l1.53,0,1.55,0h1.3l2.92,0q1.48,0,2.42-.12,0,1.1-.07,2.08a9,9,0,0,1-.33,1.83,4.94,4.94,0,0,0-1.6.47,2.26,2.26,0,0,0-.95,1.05,5.76,5.76,0,0,0-.48,1.88,27.19,27.19,0,0,0-.12,2.85Z" transform="translate(-34 -32.8)"/></svg>